<mxfile host="app.diagrams.net" agent="Mozilla/5.0 (Windows NT 10.0; Win64; x64) AppleWebKit/537.36 (KHTML, like Gecko) Chrome/132.0.0.0 Safari/537.36" version="26.0.7">
  <diagram name="Page-1" id="ad52d381-51e7-2e0d-a935-2d0ddd2fd229">
    <mxGraphModel dx="1750" dy="1792" grid="1" gridSize="10" guides="1" tooltips="1" connect="1" arrows="1" fold="1" page="1" pageScale="1" pageWidth="1100" pageHeight="850" background="none" math="0" shadow="0">
      <root>
        <mxCell id="0" />
        <mxCell id="1" parent="0" />
        <mxCell id="tUvqFTHjRJm8UM8evL2Z-60" value="" style="endArrow=none;html=1;rounded=0;entryX=0.5;entryY=1;entryDx=0;entryDy=0;strokeWidth=1;exitX=0.599;exitY=0.004;exitDx=0;exitDy=0;exitPerimeter=0;" parent="1" source="TNLm-F983Fp5qraipqUL-23" target="tUvqFTHjRJm8UM8evL2Z-58" edge="1">
          <mxGeometry width="50" height="50" relative="1" as="geometry">
            <mxPoint x="1135" y="-190" as="sourcePoint" />
            <mxPoint x="1360" y="-420" as="targetPoint" />
          </mxGeometry>
        </mxCell>
        <mxCell id="tUvqFTHjRJm8UM8evL2Z-45" value="" style="endArrow=none;html=1;rounded=0;strokeWidth=1;exitX=0.367;exitY=0.013;exitDx=0;exitDy=0;exitPerimeter=0;" parent="1" source="2c924340bb9dbf6c-2" edge="1">
          <mxGeometry width="50" height="50" relative="1" as="geometry">
            <mxPoint x="340" y="170" as="sourcePoint" />
            <mxPoint x="350" y="-100" as="targetPoint" />
          </mxGeometry>
        </mxCell>
        <mxCell id="2c924340bb9dbf6c-2" value="&lt;b&gt;Branch&lt;/b&gt;" style="whiteSpace=wrap;html=1;rounded=1;shadow=1;comic=0;labelBackgroundColor=none;strokeWidth=1;fontFamily=Verdana;fontSize=12;align=center;fillColor=#dae8fc;strokeColor=#6c8ebf;" parent="1" vertex="1">
          <mxGeometry x="510" y="554" width="120" height="80" as="geometry" />
        </mxCell>
        <mxCell id="2c924340bb9dbf6c-3" value="&lt;b&gt;Department&lt;/b&gt;" style="whiteSpace=wrap;html=1;rounded=1;shadow=1;comic=0;labelBackgroundColor=none;strokeWidth=1;fontFamily=Verdana;fontSize=12;align=center;fillColor=#dae8fc;strokeColor=#6c8ebf;" parent="1" vertex="1">
          <mxGeometry x="1020" y="554" width="120" height="80" as="geometry" />
        </mxCell>
        <mxCell id="2c924340bb9dbf6c-9" value="Name" style="whiteSpace=wrap;html=1;rounded=1;shadow=1;comic=0;labelBackgroundColor=none;strokeWidth=1;fontFamily=Verdana;fontSize=12;align=center;arcSize=50;fillColor=#ffe6cc;strokeColor=#d79b00;" parent="1" vertex="1">
          <mxGeometry x="360" y="654" width="100" height="20" as="geometry" />
        </mxCell>
        <mxCell id="2c924340bb9dbf6c-10" value="&lt;span&gt;&lt;u&gt;ID&lt;/u&gt;&lt;/span&gt;" style="whiteSpace=wrap;html=1;rounded=1;shadow=1;comic=0;labelBackgroundColor=none;strokeWidth=1;fontFamily=Verdana;fontSize=12;align=center;arcSize=50;fillColor=#ffe6cc;strokeColor=#d79b00;" parent="1" vertex="1">
          <mxGeometry x="350" y="544" width="100" height="20" as="geometry" />
        </mxCell>
        <mxCell id="2c924340bb9dbf6c-13" value="&lt;span&gt;Phone&lt;/span&gt;" style="whiteSpace=wrap;html=1;rounded=1;shadow=1;comic=0;labelBackgroundColor=none;strokeWidth=1;fontFamily=Verdana;fontSize=12;align=center;arcSize=50;fillColor=#ffe6cc;strokeColor=#d79b00;" parent="1" vertex="1">
          <mxGeometry x="959" y="1034" width="100" height="20" as="geometry" />
        </mxCell>
        <mxCell id="2c924340bb9dbf6c-14" value="&lt;span&gt;&lt;u&gt;ID&lt;/u&gt;&lt;/span&gt;" style="whiteSpace=wrap;html=1;rounded=1;shadow=1;comic=0;labelBackgroundColor=none;strokeWidth=1;fontFamily=Verdana;fontSize=12;align=center;arcSize=50;fillColor=#ffe6cc;strokeColor=#d79b00;" parent="1" vertex="1">
          <mxGeometry x="1205" y="604" width="100" height="20" as="geometry" />
        </mxCell>
        <mxCell id="2c924340bb9dbf6c-15" value="Name" style="whiteSpace=wrap;html=1;rounded=1;shadow=1;comic=0;labelBackgroundColor=none;strokeWidth=1;fontFamily=Verdana;fontSize=12;align=center;arcSize=50;fillColor=#ffe6cc;strokeColor=#d79b00;" parent="1" vertex="1">
          <mxGeometry x="1165" y="654" width="100" height="20" as="geometry" />
        </mxCell>
        <mxCell id="2c924340bb9dbf6c-27" value="" style="edgeStyle=none;rounded=1;html=1;labelBackgroundColor=none;startArrow=none;startFill=0;startSize=5;endArrow=classicThin;endFill=1;endSize=5;jettySize=auto;orthogonalLoop=1;strokeColor=#B3B3B3;strokeWidth=1;fontFamily=Verdana;fontSize=12" parent="1" source="2c924340bb9dbf6c-2" target="2c924340bb9dbf6c-10" edge="1">
          <mxGeometry relative="1" as="geometry" />
        </mxCell>
        <mxCell id="2c924340bb9dbf6c-30" value="" style="edgeStyle=none;rounded=1;html=1;labelBackgroundColor=none;startArrow=none;startFill=0;startSize=5;endArrow=classicThin;endFill=1;endSize=5;jettySize=auto;orthogonalLoop=1;strokeColor=#B3B3B3;strokeWidth=1;fontFamily=Verdana;fontSize=12" parent="1" source="2c924340bb9dbf6c-2" target="2c924340bb9dbf6c-9" edge="1">
          <mxGeometry relative="1" as="geometry" />
        </mxCell>
        <mxCell id="2c924340bb9dbf6c-37" value="" style="edgeStyle=none;rounded=1;html=1;labelBackgroundColor=none;startArrow=none;startFill=0;startSize=5;endArrow=classicThin;endFill=1;endSize=5;jettySize=auto;orthogonalLoop=1;strokeColor=#B3B3B3;strokeWidth=1;fontFamily=Verdana;fontSize=12" parent="1" target="2c924340bb9dbf6c-13" edge="1">
          <mxGeometry relative="1" as="geometry">
            <mxPoint x="981.5" y="964" as="sourcePoint" />
            <Array as="points">
              <mxPoint x="971.5" y="964" />
            </Array>
          </mxGeometry>
        </mxCell>
        <mxCell id="2c924340bb9dbf6c-44" value="" style="edgeStyle=none;rounded=1;html=1;labelBackgroundColor=none;startArrow=none;startFill=0;startSize=5;endArrow=classicThin;endFill=1;endSize=5;jettySize=auto;orthogonalLoop=1;strokeColor=#B3B3B3;strokeWidth=1;fontFamily=Verdana;fontSize=12" parent="1" source="2c924340bb9dbf6c-3" target="2c924340bb9dbf6c-15" edge="1">
          <mxGeometry relative="1" as="geometry" />
        </mxCell>
        <mxCell id="2c924340bb9dbf6c-45" value="" style="edgeStyle=none;rounded=1;html=1;labelBackgroundColor=none;startArrow=none;startFill=0;startSize=5;endArrow=classicThin;endFill=1;endSize=5;jettySize=auto;orthogonalLoop=1;strokeColor=#B3B3B3;strokeWidth=1;fontFamily=Verdana;fontSize=12" parent="1" source="2c924340bb9dbf6c-3" target="2c924340bb9dbf6c-14" edge="1">
          <mxGeometry relative="1" as="geometry" />
        </mxCell>
        <mxCell id="2c924340bb9dbf6c-52" value="&lt;b&gt;Instructor&lt;/b&gt;" style="whiteSpace=wrap;html=1;rounded=1;shadow=1;comic=0;labelBackgroundColor=none;strokeWidth=1;fontFamily=Verdana;fontSize=12;align=center;fillColor=#dae8fc;strokeColor=#6c8ebf;" parent="1" vertex="1">
          <mxGeometry x="851.5" y="914" width="120" height="80" as="geometry" />
        </mxCell>
        <mxCell id="2c924340bb9dbf6c-53" value="&lt;u&gt;ID&lt;/u&gt;" style="whiteSpace=wrap;html=1;rounded=1;shadow=1;comic=0;labelBackgroundColor=none;strokeWidth=1;fontFamily=Verdana;fontSize=12;align=center;arcSize=50;fillColor=#ffe6cc;strokeColor=#d79b00;" parent="1" vertex="1">
          <mxGeometry x="700" y="951" width="100" height="20" as="geometry" />
        </mxCell>
        <mxCell id="2c924340bb9dbf6c-54" value="Name" style="whiteSpace=wrap;html=1;rounded=1;shadow=1;comic=0;labelBackgroundColor=none;strokeWidth=1;fontFamily=Verdana;fontSize=12;align=center;arcSize=50;fillColor=#ffe6cc;strokeColor=#d79b00;" parent="1" vertex="1">
          <mxGeometry x="1020" y="990" width="100" height="20" as="geometry" />
        </mxCell>
        <mxCell id="2c924340bb9dbf6c-63" value="" style="edgeStyle=none;rounded=1;html=1;labelBackgroundColor=none;startArrow=none;startFill=0;startSize=5;endArrow=classicThin;endFill=1;endSize=5;jettySize=auto;orthogonalLoop=1;strokeColor=#B3B3B3;strokeWidth=1;fontFamily=Verdana;fontSize=12;" parent="1" target="2c924340bb9dbf6c-53" edge="1">
          <mxGeometry relative="1" as="geometry">
            <mxPoint x="851" y="961" as="sourcePoint" />
            <Array as="points">
              <mxPoint x="851" y="954" />
            </Array>
          </mxGeometry>
        </mxCell>
        <mxCell id="2c924340bb9dbf6c-64" value="" style="edgeStyle=none;rounded=1;html=1;labelBackgroundColor=none;startArrow=none;startFill=0;startSize=5;endArrow=classicThin;endFill=1;endSize=5;jettySize=auto;orthogonalLoop=1;strokeColor=#B3B3B3;strokeWidth=1;fontFamily=Verdana;fontSize=12" parent="1" source="2c924340bb9dbf6c-52" target="2c924340bb9dbf6c-54" edge="1">
          <mxGeometry relative="1" as="geometry" />
        </mxCell>
        <mxCell id="TNLm-F983Fp5qraipqUL-1" value="&lt;b&gt;Course&lt;/b&gt;" style="whiteSpace=wrap;html=1;rounded=1;shadow=1;comic=0;labelBackgroundColor=none;strokeWidth=1;fontFamily=Verdana;fontSize=12;align=center;fillColor=#dae8fc;strokeColor=#6c8ebf;" parent="1" vertex="1">
          <mxGeometry x="1570" y="206" width="120" height="80" as="geometry" />
        </mxCell>
        <mxCell id="TNLm-F983Fp5qraipqUL-2" value="&lt;span&gt;&lt;u&gt;ID&lt;/u&gt;&lt;/span&gt;" style="whiteSpace=wrap;html=1;rounded=1;shadow=1;comic=0;labelBackgroundColor=none;strokeWidth=1;fontFamily=Verdana;fontSize=12;align=center;arcSize=50;fillColor=#ffe6cc;strokeColor=#d79b00;" parent="1" vertex="1">
          <mxGeometry x="1542" y="150" width="100" height="20" as="geometry" />
        </mxCell>
        <mxCell id="TNLm-F983Fp5qraipqUL-3" value="Name" style="whiteSpace=wrap;html=1;rounded=1;shadow=1;comic=0;labelBackgroundColor=none;strokeWidth=1;fontFamily=Verdana;fontSize=12;align=center;arcSize=50;fillColor=#ffe6cc;strokeColor=#d79b00;" parent="1" vertex="1">
          <mxGeometry x="1630" y="126.12" width="100" height="20" as="geometry" />
        </mxCell>
        <mxCell id="TNLm-F983Fp5qraipqUL-4" value="" style="edgeStyle=none;rounded=1;html=1;labelBackgroundColor=none;startArrow=none;startFill=0;startSize=5;endArrow=classicThin;endFill=1;endSize=5;jettySize=auto;orthogonalLoop=1;strokeColor=#B3B3B3;strokeWidth=1;fontFamily=Verdana;fontSize=12" parent="1" source="TNLm-F983Fp5qraipqUL-1" target="TNLm-F983Fp5qraipqUL-3" edge="1">
          <mxGeometry relative="1" as="geometry" />
        </mxCell>
        <mxCell id="TNLm-F983Fp5qraipqUL-5" value="" style="edgeStyle=none;rounded=1;html=1;labelBackgroundColor=none;startArrow=none;startFill=0;startSize=5;endArrow=classicThin;endFill=1;endSize=5;jettySize=auto;orthogonalLoop=1;strokeColor=#B3B3B3;strokeWidth=1;fontFamily=Verdana;fontSize=12" parent="1" source="TNLm-F983Fp5qraipqUL-1" target="TNLm-F983Fp5qraipqUL-2" edge="1">
          <mxGeometry relative="1" as="geometry" />
        </mxCell>
        <mxCell id="TNLm-F983Fp5qraipqUL-6" value="Hours" style="whiteSpace=wrap;html=1;rounded=1;shadow=1;comic=0;labelBackgroundColor=none;strokeWidth=1;fontFamily=Verdana;fontSize=12;align=center;arcSize=50;fillColor=#ffe6cc;strokeColor=#d79b00;" parent="1" vertex="1">
          <mxGeometry x="1710" y="155" width="100" height="20" as="geometry" />
        </mxCell>
        <mxCell id="TNLm-F983Fp5qraipqUL-7" value="" style="edgeStyle=none;rounded=1;html=1;labelBackgroundColor=none;startArrow=none;startFill=0;startSize=5;endArrow=classicThin;endFill=1;endSize=5;jettySize=auto;orthogonalLoop=1;strokeColor=#B3B3B3;strokeWidth=1;fontFamily=Verdana;fontSize=12;entryX=0;entryY=1;entryDx=0;entryDy=0;exitX=1;exitY=0;exitDx=0;exitDy=0;" parent="1" source="TNLm-F983Fp5qraipqUL-1" target="TNLm-F983Fp5qraipqUL-6" edge="1">
          <mxGeometry relative="1" as="geometry">
            <mxPoint x="1680" y="266" as="sourcePoint" />
            <mxPoint x="1736" y="316" as="targetPoint" />
          </mxGeometry>
        </mxCell>
        <mxCell id="TNLm-F983Fp5qraipqUL-8" value="Address" style="whiteSpace=wrap;html=1;rounded=1;shadow=1;comic=0;labelBackgroundColor=none;strokeWidth=1;fontFamily=Verdana;fontSize=12;align=center;arcSize=50;fillColor=#ffe6cc;strokeColor=#d79b00;" parent="1" vertex="1">
          <mxGeometry x="850" y="1034" width="100" height="20" as="geometry" />
        </mxCell>
        <mxCell id="TNLm-F983Fp5qraipqUL-9" value="" style="edgeStyle=none;rounded=1;html=1;labelBackgroundColor=none;startArrow=none;startFill=0;startSize=5;endArrow=classicThin;endFill=1;endSize=5;jettySize=auto;orthogonalLoop=1;strokeColor=#B3B3B3;strokeWidth=1;fontFamily=Verdana;fontSize=12" parent="1" target="TNLm-F983Fp5qraipqUL-8" edge="1">
          <mxGeometry relative="1" as="geometry">
            <mxPoint x="951.5" y="984" as="sourcePoint" />
            <Array as="points">
              <mxPoint x="951.5" y="984" />
            </Array>
          </mxGeometry>
        </mxCell>
        <mxCell id="TNLm-F983Fp5qraipqUL-10" value="FirstName" style="whiteSpace=wrap;html=1;rounded=1;shadow=1;comic=0;labelBackgroundColor=none;strokeWidth=1;fontFamily=Verdana;fontSize=12;align=center;arcSize=50;fillColor=#ffe6cc;strokeColor=#d79b00;" parent="1" vertex="1">
          <mxGeometry x="1160" y="950" width="100" height="20" as="geometry" />
        </mxCell>
        <mxCell id="TNLm-F983Fp5qraipqUL-12" value="" style="edgeStyle=none;rounded=1;html=1;labelBackgroundColor=none;startArrow=none;startFill=0;startSize=5;endArrow=classicThin;endFill=1;endSize=5;jettySize=auto;orthogonalLoop=1;strokeColor=#B3B3B3;strokeWidth=1;fontFamily=Verdana;fontSize=12;entryX=0;entryY=1;entryDx=0;entryDy=0;exitX=1;exitY=0;exitDx=0;exitDy=0;" parent="1" source="2c924340bb9dbf6c-54" target="TNLm-F983Fp5qraipqUL-10" edge="1">
          <mxGeometry relative="1" as="geometry">
            <mxPoint x="1061.5" y="914" as="sourcePoint" />
            <mxPoint x="1066.5" y="964" as="targetPoint" />
            <Array as="points" />
          </mxGeometry>
        </mxCell>
        <mxCell id="TNLm-F983Fp5qraipqUL-13" value="" style="edgeStyle=none;rounded=1;html=1;labelBackgroundColor=none;startArrow=none;startFill=0;startSize=5;endArrow=classicThin;endFill=1;endSize=5;jettySize=auto;orthogonalLoop=1;strokeColor=#B3B3B3;strokeWidth=1;fontFamily=Verdana;fontSize=12;entryX=0;entryY=0.5;entryDx=0;entryDy=0;exitX=1;exitY=1;exitDx=0;exitDy=0;" parent="1" source="2c924340bb9dbf6c-54" target="TNLm-F983Fp5qraipqUL-14" edge="1">
          <mxGeometry relative="1" as="geometry">
            <mxPoint x="1101.5" y="949" as="sourcePoint" />
            <mxPoint x="1150.5" y="926" as="targetPoint" />
            <Array as="points" />
          </mxGeometry>
        </mxCell>
        <mxCell id="TNLm-F983Fp5qraipqUL-14" value="LastName" style="whiteSpace=wrap;html=1;rounded=1;shadow=1;comic=0;labelBackgroundColor=none;strokeWidth=1;fontFamily=Verdana;fontSize=12;align=center;arcSize=50;fillColor=#ffe6cc;strokeColor=#d79b00;" parent="1" vertex="1">
          <mxGeometry x="1169" y="1000" width="100" height="20" as="geometry" />
        </mxCell>
        <mxCell id="TNLm-F983Fp5qraipqUL-21" value="&lt;span&gt;Phone&lt;/span&gt;" style="whiteSpace=wrap;html=1;rounded=1;shadow=1;comic=0;labelBackgroundColor=none;strokeWidth=1;fontFamily=Verdana;fontSize=12;align=center;arcSize=50;fillColor=#ffe6cc;strokeColor=#d79b00;" parent="1" vertex="1">
          <mxGeometry x="671" y="92" width="100" height="20" as="geometry" />
        </mxCell>
        <mxCell id="TNLm-F983Fp5qraipqUL-22" value="" style="edgeStyle=none;rounded=1;html=1;labelBackgroundColor=none;startArrow=none;startFill=0;startSize=5;endArrow=classicThin;endFill=1;endSize=5;jettySize=auto;orthogonalLoop=1;strokeColor=#B3B3B3;strokeWidth=1;fontFamily=Verdana;fontSize=12;exitX=0.288;exitY=0.988;exitDx=0;exitDy=0;exitPerimeter=0;" parent="1" source="TNLm-F983Fp5qraipqUL-23" target="TNLm-F983Fp5qraipqUL-21" edge="1">
          <mxGeometry relative="1" as="geometry">
            <mxPoint x="861.5" y="250" as="sourcePoint" />
            <Array as="points">
              <mxPoint x="770.5" y="280" />
            </Array>
          </mxGeometry>
        </mxCell>
        <mxCell id="TNLm-F983Fp5qraipqUL-23" value="&lt;b&gt;Student&lt;/b&gt;" style="whiteSpace=wrap;html=1;rounded=1;shadow=1;comic=0;labelBackgroundColor=none;strokeWidth=1;fontFamily=Verdana;fontSize=12;align=center;fillColor=#dae8fc;strokeColor=#6c8ebf;" parent="1" vertex="1">
          <mxGeometry x="731.5" y="200" width="120" height="80" as="geometry" />
        </mxCell>
        <mxCell id="TNLm-F983Fp5qraipqUL-24" value="&lt;u&gt;ID&lt;/u&gt;" style="whiteSpace=wrap;html=1;rounded=1;shadow=1;comic=0;labelBackgroundColor=none;strokeWidth=1;fontFamily=Verdana;fontSize=12;align=center;arcSize=50;fillColor=#ffe6cc;strokeColor=#d79b00;" parent="1" vertex="1">
          <mxGeometry x="430" y="250" width="100" height="20" as="geometry" />
        </mxCell>
        <mxCell id="TNLm-F983Fp5qraipqUL-25" value="Name" style="whiteSpace=wrap;html=1;rounded=1;shadow=1;comic=0;labelBackgroundColor=none;strokeWidth=1;fontFamily=Verdana;fontSize=12;align=center;arcSize=50;fillColor=#ffe6cc;strokeColor=#d79b00;" parent="1" vertex="1">
          <mxGeometry x="538.25" y="186.12" width="100" height="20" as="geometry" />
        </mxCell>
        <mxCell id="TNLm-F983Fp5qraipqUL-26" value="" style="edgeStyle=none;rounded=1;html=1;labelBackgroundColor=none;startArrow=none;startFill=0;startSize=5;endArrow=classicThin;endFill=1;endSize=5;jettySize=auto;orthogonalLoop=1;strokeColor=#B3B3B3;strokeWidth=1;fontFamily=Verdana;fontSize=12" parent="1" source="TNLm-F983Fp5qraipqUL-23" target="TNLm-F983Fp5qraipqUL-24" edge="1">
          <mxGeometry relative="1" as="geometry" />
        </mxCell>
        <mxCell id="TNLm-F983Fp5qraipqUL-27" value="" style="edgeStyle=none;rounded=1;html=1;labelBackgroundColor=none;startArrow=none;startFill=0;startSize=5;endArrow=classicThin;endFill=1;endSize=5;jettySize=auto;orthogonalLoop=1;strokeColor=#B3B3B3;strokeWidth=1;fontFamily=Verdana;fontSize=12;exitX=0.061;exitY=0.38;exitDx=0;exitDy=0;exitPerimeter=0;" parent="1" source="TNLm-F983Fp5qraipqUL-23" target="TNLm-F983Fp5qraipqUL-25" edge="1">
          <mxGeometry relative="1" as="geometry">
            <mxPoint x="593.975177000646" y="246.22165200602728" as="sourcePoint" />
          </mxGeometry>
        </mxCell>
        <mxCell id="TNLm-F983Fp5qraipqUL-28" value="JoinDate" style="whiteSpace=wrap;html=1;rounded=1;shadow=1;comic=0;labelBackgroundColor=none;strokeWidth=1;fontFamily=Verdana;fontSize=12;align=center;arcSize=50;fillColor=#ffe6cc;strokeColor=#d79b00;" parent="1" vertex="1">
          <mxGeometry x="831.5" y="155" width="100" height="20" as="geometry" />
        </mxCell>
        <mxCell id="TNLm-F983Fp5qraipqUL-29" value="" style="edgeStyle=none;rounded=1;html=1;labelBackgroundColor=none;startArrow=none;startFill=0;startSize=5;endArrow=classicThin;endFill=1;endSize=5;jettySize=auto;orthogonalLoop=1;strokeColor=#B3B3B3;strokeWidth=1;fontFamily=Verdana;fontSize=12" parent="1" target="TNLm-F983Fp5qraipqUL-28" edge="1">
          <mxGeometry relative="1" as="geometry">
            <mxPoint x="820" y="200" as="sourcePoint" />
            <Array as="points">
              <mxPoint x="820" y="200" />
            </Array>
          </mxGeometry>
        </mxCell>
        <mxCell id="TNLm-F983Fp5qraipqUL-30" value="FirstName" style="whiteSpace=wrap;html=1;rounded=1;shadow=1;comic=0;labelBackgroundColor=none;strokeWidth=1;fontFamily=Verdana;fontSize=12;align=center;arcSize=50;fillColor=#ffe6cc;strokeColor=#d79b00;" parent="1" vertex="1">
          <mxGeometry x="427.75" y="126.12" width="100" height="20" as="geometry" />
        </mxCell>
        <mxCell id="TNLm-F983Fp5qraipqUL-31" value="" style="edgeStyle=none;rounded=1;html=1;labelBackgroundColor=none;startArrow=none;startFill=0;startSize=5;endArrow=classicThin;endFill=1;endSize=5;jettySize=auto;orthogonalLoop=1;strokeColor=#B3B3B3;strokeWidth=1;fontFamily=Verdana;fontSize=12;entryX=1;entryY=0.75;entryDx=0;entryDy=0;exitX=0.25;exitY=0;exitDx=0;exitDy=0;" parent="1" source="TNLm-F983Fp5qraipqUL-25" target="TNLm-F983Fp5qraipqUL-30" edge="1">
          <mxGeometry relative="1" as="geometry">
            <mxPoint x="748.25" y="246.12" as="sourcePoint" />
            <mxPoint x="753.25" y="296.12" as="targetPoint" />
            <Array as="points" />
          </mxGeometry>
        </mxCell>
        <mxCell id="TNLm-F983Fp5qraipqUL-32" value="" style="edgeStyle=none;rounded=1;html=1;labelBackgroundColor=none;startArrow=none;startFill=0;startSize=5;endArrow=classicThin;endFill=1;endSize=5;jettySize=auto;orthogonalLoop=1;strokeColor=#B3B3B3;strokeWidth=1;fontFamily=Verdana;fontSize=12;exitX=0.75;exitY=0;exitDx=0;exitDy=0;entryX=0.5;entryY=1;entryDx=0;entryDy=0;" parent="1" source="TNLm-F983Fp5qraipqUL-25" target="TNLm-F983Fp5qraipqUL-33" edge="1">
          <mxGeometry relative="1" as="geometry">
            <mxPoint x="646.75" y="146.12" as="sourcePoint" />
            <mxPoint x="680" y="90" as="targetPoint" />
            <Array as="points" />
          </mxGeometry>
        </mxCell>
        <mxCell id="TNLm-F983Fp5qraipqUL-33" value="LastName" style="whiteSpace=wrap;html=1;rounded=1;shadow=1;comic=0;labelBackgroundColor=none;strokeWidth=1;fontFamily=Verdana;fontSize=12;align=center;arcSize=50;fillColor=#ffe6cc;strokeColor=#d79b00;" parent="1" vertex="1">
          <mxGeometry x="588.25" y="126.12" width="100" height="20" as="geometry" />
        </mxCell>
        <mxCell id="TNLm-F983Fp5qraipqUL-34" value="Address" style="whiteSpace=wrap;html=1;rounded=1;shadow=1;comic=0;labelBackgroundColor=none;strokeWidth=1;fontFamily=Verdana;fontSize=12;align=center;arcSize=50;fillColor=#ffe6cc;strokeColor=#d79b00;" parent="1" vertex="1">
          <mxGeometry x="774" y="122" width="100" height="20" as="geometry" />
        </mxCell>
        <mxCell id="TNLm-F983Fp5qraipqUL-35" value="" style="edgeStyle=none;rounded=1;html=1;labelBackgroundColor=none;startArrow=none;startFill=0;startSize=5;endArrow=classicThin;endFill=1;endSize=5;jettySize=auto;orthogonalLoop=1;strokeColor=#B3B3B3;strokeWidth=1;fontFamily=Verdana;fontSize=12;" parent="1" target="TNLm-F983Fp5qraipqUL-34" edge="1">
          <mxGeometry relative="1" as="geometry">
            <mxPoint x="780" y="200" as="sourcePoint" />
            <Array as="points" />
          </mxGeometry>
        </mxCell>
        <mxCell id="TNLm-F983Fp5qraipqUL-53" value="HireDate" style="whiteSpace=wrap;html=1;rounded=1;shadow=1;comic=0;labelBackgroundColor=none;strokeWidth=1;fontFamily=Verdana;fontSize=12;align=center;arcSize=50;fillColor=#ffe6cc;strokeColor=#d79b00;" parent="1" vertex="1">
          <mxGeometry x="714" y="994" width="100" height="20" as="geometry" />
        </mxCell>
        <mxCell id="TNLm-F983Fp5qraipqUL-54" value="" style="edgeStyle=none;rounded=1;html=1;labelBackgroundColor=none;startArrow=none;startFill=0;startSize=5;endArrow=classicThin;endFill=1;endSize=5;jettySize=auto;orthogonalLoop=1;strokeColor=#B3B3B3;strokeWidth=1;fontFamily=Verdana;fontSize=12" parent="1" target="TNLm-F983Fp5qraipqUL-53" edge="1">
          <mxGeometry relative="1" as="geometry">
            <mxPoint x="871.5" y="984" as="sourcePoint" />
            <Array as="points">
              <mxPoint x="871.5" y="984" />
            </Array>
          </mxGeometry>
        </mxCell>
        <mxCell id="TNLm-F983Fp5qraipqUL-55" value="&lt;span&gt;Type&lt;/span&gt;" style="whiteSpace=wrap;html=1;rounded=1;shadow=1;comic=0;labelBackgroundColor=none;strokeWidth=1;fontFamily=Verdana;fontSize=12;align=center;arcSize=50;fillColor=#ffe6cc;strokeColor=#d79b00;" parent="1" vertex="1">
          <mxGeometry x="2200" y="68" width="100" height="20" as="geometry" />
        </mxCell>
        <mxCell id="TNLm-F983Fp5qraipqUL-56" value="" style="edgeStyle=none;rounded=1;html=1;labelBackgroundColor=none;startArrow=none;startFill=0;startSize=5;endArrow=classicThin;endFill=1;endSize=5;jettySize=auto;orthogonalLoop=1;strokeColor=#B3B3B3;strokeWidth=1;fontFamily=Verdana;fontSize=12;exitX=0.991;exitY=0.722;exitDx=0;exitDy=0;exitPerimeter=0;" parent="1" source="TNLm-F983Fp5qraipqUL-57" target="TNLm-F983Fp5qraipqUL-55" edge="1">
          <mxGeometry relative="1" as="geometry">
            <mxPoint x="2158" y="128" as="sourcePoint" />
            <Array as="points" />
          </mxGeometry>
        </mxCell>
        <mxCell id="TNLm-F983Fp5qraipqUL-58" value="&lt;u&gt;ID&lt;/u&gt;" style="whiteSpace=wrap;html=1;rounded=1;shadow=1;comic=0;labelBackgroundColor=none;strokeWidth=1;fontFamily=Verdana;fontSize=12;align=center;arcSize=50;fillColor=#ffe6cc;strokeColor=#d79b00;" parent="1" vertex="1">
          <mxGeometry x="2080" y="-4" width="100" height="20" as="geometry" />
        </mxCell>
        <mxCell id="TNLm-F983Fp5qraipqUL-59" value="Body" style="whiteSpace=wrap;html=1;rounded=1;shadow=1;comic=0;labelBackgroundColor=none;strokeWidth=1;fontFamily=Verdana;fontSize=12;align=center;arcSize=50;fillColor=#ffe6cc;strokeColor=#d79b00;" parent="1" vertex="1">
          <mxGeometry x="2151" y="26" width="100" height="20" as="geometry" />
        </mxCell>
        <mxCell id="TNLm-F983Fp5qraipqUL-60" value="" style="edgeStyle=none;rounded=1;html=1;labelBackgroundColor=none;startArrow=none;startFill=0;startSize=5;endArrow=classicThin;endFill=1;endSize=5;jettySize=auto;orthogonalLoop=1;strokeColor=#B3B3B3;strokeWidth=1;fontFamily=Verdana;fontSize=12;exitX=1;exitY=0;exitDx=0;exitDy=0;" parent="1" source="TNLm-F983Fp5qraipqUL-57" target="TNLm-F983Fp5qraipqUL-58" edge="1">
          <mxGeometry relative="1" as="geometry">
            <mxPoint x="2130" y="88" as="sourcePoint" />
          </mxGeometry>
        </mxCell>
        <mxCell id="TNLm-F983Fp5qraipqUL-61" value="" style="edgeStyle=none;rounded=1;html=1;labelBackgroundColor=none;startArrow=none;startFill=0;startSize=5;endArrow=classicThin;endFill=1;endSize=5;jettySize=auto;orthogonalLoop=1;strokeColor=#B3B3B3;strokeWidth=1;fontFamily=Verdana;fontSize=12;exitX=1;exitY=0.5;exitDx=0;exitDy=0;" parent="1" source="TNLm-F983Fp5qraipqUL-57" target="TNLm-F983Fp5qraipqUL-59" edge="1">
          <mxGeometry relative="1" as="geometry">
            <mxPoint x="2157.6190298672827" y="92.48981874206538" as="sourcePoint" />
          </mxGeometry>
        </mxCell>
        <mxCell id="TNLm-F983Fp5qraipqUL-63" value="" style="edgeStyle=none;rounded=1;html=1;labelBackgroundColor=none;startArrow=none;startFill=0;startSize=5;endArrow=classicThin;endFill=1;endSize=5;jettySize=auto;orthogonalLoop=1;strokeColor=#B3B3B3;strokeWidth=1;fontFamily=Verdana;fontSize=12;exitX=1;exitY=0;exitDx=0;exitDy=0;entryX=0.25;entryY=1;entryDx=0;entryDy=0;" parent="1" source="TNLm-F983Fp5qraipqUL-238" target="tUvqFTHjRJm8UM8evL2Z-47" edge="1">
          <mxGeometry relative="1" as="geometry">
            <mxPoint x="1967" y="82" as="sourcePoint" />
            <Array as="points">
              <mxPoint x="1610" y="-260" />
            </Array>
            <mxPoint x="2221" y="110.40789473684208" as="targetPoint" />
          </mxGeometry>
        </mxCell>
        <mxCell id="TNLm-F983Fp5qraipqUL-81" value="Choices" style="whiteSpace=wrap;html=1;rounded=1;shadow=1;comic=0;labelBackgroundColor=none;strokeWidth=1;fontFamily=Verdana;fontSize=12;align=center;fillColor=#dae8fc;strokeColor=#6c8ebf;" parent="1" vertex="1">
          <mxGeometry x="1952" y="-290" width="120" height="80" as="geometry" />
        </mxCell>
        <mxCell id="TNLm-F983Fp5qraipqUL-82" value="&lt;span&gt;&lt;u&gt;ID&lt;/u&gt;&lt;/span&gt;" style="whiteSpace=wrap;html=1;rounded=1;shadow=1;comic=0;labelBackgroundColor=none;strokeWidth=1;fontFamily=Verdana;fontSize=12;align=center;arcSize=50;fillColor=#ffe6cc;strokeColor=#d79b00;" parent="1" vertex="1">
          <mxGeometry x="1952" y="-380" width="100" height="20" as="geometry" />
        </mxCell>
        <mxCell id="TNLm-F983Fp5qraipqUL-83" value="ChoiceText" style="whiteSpace=wrap;html=1;rounded=1;shadow=1;comic=0;labelBackgroundColor=none;strokeWidth=1;fontFamily=Verdana;fontSize=12;align=center;arcSize=50;fillColor=#ffe6cc;strokeColor=#d79b00;" parent="1" vertex="1">
          <mxGeometry x="2062" y="-360" width="100" height="20" as="geometry" />
        </mxCell>
        <mxCell id="TNLm-F983Fp5qraipqUL-84" value="" style="edgeStyle=none;rounded=1;html=1;labelBackgroundColor=none;startArrow=none;startFill=0;startSize=5;endArrow=classicThin;endFill=1;endSize=5;jettySize=auto;orthogonalLoop=1;strokeColor=#B3B3B3;strokeWidth=1;fontFamily=Verdana;fontSize=12" parent="1" source="TNLm-F983Fp5qraipqUL-81" target="TNLm-F983Fp5qraipqUL-83" edge="1">
          <mxGeometry relative="1" as="geometry" />
        </mxCell>
        <mxCell id="TNLm-F983Fp5qraipqUL-85" value="" style="edgeStyle=none;rounded=1;html=1;labelBackgroundColor=none;startArrow=none;startFill=0;startSize=5;endArrow=classicThin;endFill=1;endSize=5;jettySize=auto;orthogonalLoop=1;strokeColor=#B3B3B3;strokeWidth=1;fontFamily=Verdana;fontSize=12" parent="1" source="TNLm-F983Fp5qraipqUL-81" target="TNLm-F983Fp5qraipqUL-82" edge="1">
          <mxGeometry relative="1" as="geometry" />
        </mxCell>
        <mxCell id="TNLm-F983Fp5qraipqUL-88" value="&lt;b&gt;Exam&lt;/b&gt;" style="whiteSpace=wrap;html=1;rounded=1;shadow=1;comic=0;labelBackgroundColor=none;strokeWidth=1;fontFamily=Verdana;fontSize=12;align=center;fillColor=#dae8fc;strokeColor=#6c8ebf;" parent="1" vertex="1">
          <mxGeometry x="1340" y="-500" width="120" height="80" as="geometry" />
        </mxCell>
        <mxCell id="TNLm-F983Fp5qraipqUL-89" value="&lt;span&gt;&lt;u&gt;ID&lt;/u&gt;&lt;/span&gt;" style="whiteSpace=wrap;html=1;rounded=1;shadow=1;comic=0;labelBackgroundColor=none;strokeWidth=1;fontFamily=Verdana;fontSize=12;align=center;arcSize=50;fillColor=#ffe6cc;strokeColor=#d79b00;" parent="1" vertex="1">
          <mxGeometry x="1149.5" y="-560" width="100" height="20" as="geometry" />
        </mxCell>
        <mxCell id="TNLm-F983Fp5qraipqUL-90" value="Type" style="whiteSpace=wrap;html=1;rounded=1;shadow=1;comic=0;labelBackgroundColor=none;strokeWidth=1;fontFamily=Verdana;fontSize=12;align=center;arcSize=50;fillColor=#ffe6cc;strokeColor=#d79b00;" parent="1" vertex="1">
          <mxGeometry x="1242" y="-610" width="100" height="20" as="geometry" />
        </mxCell>
        <mxCell id="TNLm-F983Fp5qraipqUL-91" value="" style="edgeStyle=none;rounded=1;html=1;labelBackgroundColor=none;startArrow=none;startFill=0;startSize=5;endArrow=classicThin;endFill=1;endSize=5;jettySize=auto;orthogonalLoop=1;strokeColor=#B3B3B3;strokeWidth=1;fontFamily=Verdana;fontSize=12" parent="1" source="TNLm-F983Fp5qraipqUL-88" target="TNLm-F983Fp5qraipqUL-90" edge="1">
          <mxGeometry relative="1" as="geometry" />
        </mxCell>
        <mxCell id="TNLm-F983Fp5qraipqUL-92" value="" style="edgeStyle=none;rounded=1;html=1;labelBackgroundColor=none;startArrow=none;startFill=0;startSize=5;endArrow=classicThin;endFill=1;endSize=5;jettySize=auto;orthogonalLoop=1;strokeColor=#B3B3B3;strokeWidth=1;fontFamily=Verdana;fontSize=12" parent="1" source="TNLm-F983Fp5qraipqUL-88" target="TNLm-F983Fp5qraipqUL-89" edge="1">
          <mxGeometry relative="1" as="geometry" />
        </mxCell>
        <mxCell id="TNLm-F983Fp5qraipqUL-93" value="Duration" style="whiteSpace=wrap;html=1;rounded=1;shadow=1;comic=0;labelBackgroundColor=none;strokeWidth=1;fontFamily=Verdana;fontSize=12;align=center;arcSize=50;fillColor=#ffe6cc;strokeColor=#d79b00;" parent="1" vertex="1">
          <mxGeometry x="1355" y="-630" width="100" height="20" as="geometry" />
        </mxCell>
        <mxCell id="TNLm-F983Fp5qraipqUL-94" value="" style="edgeStyle=none;rounded=1;html=1;labelBackgroundColor=none;startArrow=none;startFill=0;startSize=5;endArrow=classic;endFill=1;endSize=5;jettySize=auto;orthogonalLoop=1;strokeColor=#B3B3B3;strokeWidth=1;fontFamily=Verdana;fontSize=12;entryX=0.5;entryY=1;entryDx=0;entryDy=0;" parent="1" target="TNLm-F983Fp5qraipqUL-106" edge="1">
          <mxGeometry relative="1" as="geometry">
            <mxPoint x="1430" y="-490" as="sourcePoint" />
            <mxPoint x="1420" y="-389.9999999999998" as="targetPoint" />
          </mxGeometry>
        </mxCell>
        <mxCell id="TNLm-F983Fp5qraipqUL-106" value="Date" style="whiteSpace=wrap;html=1;rounded=1;shadow=1;comic=0;labelBackgroundColor=none;strokeWidth=1;fontFamily=Verdana;fontSize=12;align=center;arcSize=50;fillColor=#ffe6cc;strokeColor=#d79b00;" parent="1" vertex="1">
          <mxGeometry x="1415" y="-580" width="100" height="20" as="geometry" />
        </mxCell>
        <mxCell id="TNLm-F983Fp5qraipqUL-119" value="" style="endArrow=none;html=1;rounded=0;entryX=0;entryY=0.5;entryDx=0;entryDy=0;strokeWidth=1;" parent="1" target="TNLm-F983Fp5qraipqUL-122" edge="1">
          <mxGeometry width="50" height="50" relative="1" as="geometry">
            <mxPoint x="627" y="594" as="sourcePoint" />
            <mxPoint x="787" y="594" as="targetPoint" />
          </mxGeometry>
        </mxCell>
        <mxCell id="TNLm-F983Fp5qraipqUL-120" value="" style="endArrow=none;html=1;rounded=0;exitX=1;exitY=0.5;exitDx=0;exitDy=0;strokeWidth=1;" parent="1" source="TNLm-F983Fp5qraipqUL-122" edge="1">
          <mxGeometry width="50" height="50" relative="1" as="geometry">
            <mxPoint x="898" y="593.23" as="sourcePoint" />
            <mxPoint x="1018.1915780307268" y="593.8084219692728" as="targetPoint" />
          </mxGeometry>
        </mxCell>
        <mxCell id="TNLm-F983Fp5qraipqUL-122" value="Has" style="rhombus;whiteSpace=wrap;html=1;strokeWidth=1;" parent="1" vertex="1">
          <mxGeometry x="800" y="554" width="80" height="80" as="geometry" />
        </mxCell>
        <mxCell id="TNLm-F983Fp5qraipqUL-123" value="" style="endArrow=none;html=1;rounded=0;exitX=1;exitY=0.5;exitDx=0;exitDy=0;strokeWidth=1;" parent="1" edge="1">
          <mxGeometry width="50" height="50" relative="1" as="geometry">
            <mxPoint x="879" y="600" as="sourcePoint" />
            <mxPoint x="1017.1915780307268" y="599.8084219692728" as="targetPoint" />
          </mxGeometry>
        </mxCell>
        <mxCell id="TNLm-F983Fp5qraipqUL-124" value="" style="endArrow=none;html=1;rounded=0;entryX=0;entryY=0.5;entryDx=0;entryDy=0;strokeWidth=1;" parent="1" edge="1">
          <mxGeometry width="50" height="50" relative="1" as="geometry">
            <mxPoint x="632" y="600" as="sourcePoint" />
            <mxPoint x="805" y="600" as="targetPoint" />
          </mxGeometry>
        </mxCell>
        <mxCell id="TNLm-F983Fp5qraipqUL-125" value="M" style="text;html=1;align=center;verticalAlign=middle;whiteSpace=wrap;rounded=0;strokeWidth=1;" parent="1" vertex="1">
          <mxGeometry x="938" y="564" width="60" height="30" as="geometry" />
        </mxCell>
        <mxCell id="TNLm-F983Fp5qraipqUL-129" value="M" style="text;html=1;align=center;verticalAlign=middle;whiteSpace=wrap;rounded=0;strokeWidth=1;" parent="1" vertex="1">
          <mxGeometry x="620" y="564" width="60" height="30" as="geometry" />
        </mxCell>
        <mxCell id="TNLm-F983Fp5qraipqUL-132" value="Works" style="rhombus;whiteSpace=wrap;html=1;strokeWidth=1;" parent="1" vertex="1">
          <mxGeometry x="691" y="712" width="80" height="80" as="geometry" />
        </mxCell>
        <mxCell id="TNLm-F983Fp5qraipqUL-134" value="" style="endArrow=none;html=1;rounded=0;exitX=1;exitY=1;exitDx=0;exitDy=0;strokeWidth=1;" parent="1" source="TNLm-F983Fp5qraipqUL-132" edge="1">
          <mxGeometry width="50" height="50" relative="1" as="geometry">
            <mxPoint x="761" y="772" as="sourcePoint" />
            <mxPoint x="881" y="912" as="targetPoint" />
          </mxGeometry>
        </mxCell>
        <mxCell id="TNLm-F983Fp5qraipqUL-135" value="" style="endArrow=none;html=1;rounded=0;exitX=0;exitY=0;exitDx=0;exitDy=0;strokeWidth=1;" parent="1" edge="1">
          <mxGeometry width="50" height="50" relative="1" as="geometry">
            <mxPoint x="705" y="736" as="sourcePoint" />
            <mxPoint x="600" y="630" as="targetPoint" />
          </mxGeometry>
        </mxCell>
        <mxCell id="TNLm-F983Fp5qraipqUL-136" value="" style="endArrow=none;html=1;rounded=0;exitX=1;exitY=1;exitDx=0;exitDy=0;strokeWidth=1;" parent="1" edge="1">
          <mxGeometry width="50" height="50" relative="1" as="geometry">
            <mxPoint x="749" y="780" as="sourcePoint" />
            <mxPoint x="879" y="920" as="targetPoint" />
          </mxGeometry>
        </mxCell>
        <mxCell id="TNLm-F983Fp5qraipqUL-137" value="1" style="text;html=1;align=center;verticalAlign=middle;whiteSpace=wrap;rounded=0;strokeWidth=1;" parent="1" vertex="1">
          <mxGeometry x="999" y="645" width="60" height="30" as="geometry" />
        </mxCell>
        <mxCell id="TNLm-F983Fp5qraipqUL-138" value="1" style="text;html=1;align=center;verticalAlign=middle;whiteSpace=wrap;rounded=0;strokeWidth=1;" parent="1" vertex="1">
          <mxGeometry x="621" y="637" width="60" height="30" as="geometry" />
        </mxCell>
        <mxCell id="TNLm-F983Fp5qraipqUL-139" value="Works" style="rhombus;whiteSpace=wrap;html=1;strokeWidth=1;" parent="1" vertex="1">
          <mxGeometry x="950" y="714" width="80" height="80" as="geometry" />
        </mxCell>
        <mxCell id="TNLm-F983Fp5qraipqUL-140" value="" style="endArrow=none;html=1;rounded=0;exitX=1;exitY=0;exitDx=0;exitDy=0;strokeWidth=1;" parent="1" source="TNLm-F983Fp5qraipqUL-139" edge="1">
          <mxGeometry width="50" height="50" relative="1" as="geometry">
            <mxPoint x="1020" y="684" as="sourcePoint" />
            <mxPoint x="1070" y="634" as="targetPoint" />
          </mxGeometry>
        </mxCell>
        <mxCell id="TNLm-F983Fp5qraipqUL-141" value="" style="endArrow=none;html=1;rounded=0;exitX=0.5;exitY=0;exitDx=0;exitDy=0;strokeWidth=1;" parent="1" source="2c924340bb9dbf6c-52" edge="1">
          <mxGeometry width="50" height="50" relative="1" as="geometry">
            <mxPoint x="930" y="834" as="sourcePoint" />
            <mxPoint x="980" y="784" as="targetPoint" />
          </mxGeometry>
        </mxCell>
        <mxCell id="TNLm-F983Fp5qraipqUL-143" value="" style="endArrow=none;html=1;rounded=0;entryX=0;entryY=1;entryDx=0;entryDy=0;strokeWidth=1;" parent="1" target="TNLm-F983Fp5qraipqUL-139" edge="1">
          <mxGeometry width="50" height="50" relative="1" as="geometry">
            <mxPoint x="900" y="914" as="sourcePoint" />
            <mxPoint x="950" y="864" as="targetPoint" />
          </mxGeometry>
        </mxCell>
        <mxCell id="TNLm-F983Fp5qraipqUL-145" value="Supervise" style="rhombus;whiteSpace=wrap;html=1;strokeWidth=1;" parent="1" vertex="1">
          <mxGeometry x="1050" y="714" width="80" height="80" as="geometry" />
        </mxCell>
        <mxCell id="TNLm-F983Fp5qraipqUL-146" value="" style="endArrow=none;html=1;rounded=0;strokeWidth=1;" parent="1" edge="1">
          <mxGeometry width="50" height="50" relative="1" as="geometry">
            <mxPoint x="950" y="920" as="sourcePoint" />
            <mxPoint x="1070" y="774" as="targetPoint" />
          </mxGeometry>
        </mxCell>
        <mxCell id="TNLm-F983Fp5qraipqUL-147" value="" style="endArrow=none;html=1;rounded=0;entryX=0.597;entryY=0.955;entryDx=0;entryDy=0;entryPerimeter=0;strokeWidth=1;" parent="1" target="2c924340bb9dbf6c-3" edge="1">
          <mxGeometry width="50" height="50" relative="1" as="geometry">
            <mxPoint x="1090" y="714" as="sourcePoint" />
            <mxPoint x="1140" y="664" as="targetPoint" />
          </mxGeometry>
        </mxCell>
        <mxCell id="TNLm-F983Fp5qraipqUL-148" value="" style="endArrow=none;html=1;rounded=0;strokeWidth=1;" parent="1" edge="1">
          <mxGeometry width="50" height="50" relative="1" as="geometry">
            <mxPoint x="1098" y="714" as="sourcePoint" />
            <mxPoint x="1098" y="634" as="targetPoint" />
          </mxGeometry>
        </mxCell>
        <mxCell id="TNLm-F983Fp5qraipqUL-149" value="1" style="text;html=1;align=center;verticalAlign=middle;whiteSpace=wrap;rounded=0;strokeWidth=1;" parent="1" vertex="1">
          <mxGeometry x="1089.5" y="639" width="60" height="30" as="geometry" />
        </mxCell>
        <mxCell id="TNLm-F983Fp5qraipqUL-150" value="1" style="text;html=1;align=center;verticalAlign=middle;whiteSpace=wrap;rounded=0;strokeWidth=1;" parent="1" vertex="1">
          <mxGeometry x="970" y="874" width="60" height="30" as="geometry" />
        </mxCell>
        <mxCell id="TNLm-F983Fp5qraipqUL-153" value="M" style="text;html=1;align=center;verticalAlign=middle;whiteSpace=wrap;rounded=0;strokeWidth=1;" parent="1" vertex="1">
          <mxGeometry x="814" y="832" width="60" height="30" as="geometry" />
        </mxCell>
        <mxCell id="TNLm-F983Fp5qraipqUL-154" value="M" style="text;html=1;align=center;verticalAlign=middle;whiteSpace=wrap;rounded=0;strokeWidth=1;" parent="1" vertex="1">
          <mxGeometry x="875" y="861" width="60" height="30" as="geometry" />
        </mxCell>
        <mxCell id="TNLm-F983Fp5qraipqUL-156" value="" style="endArrow=none;html=1;rounded=0;entryX=0.406;entryY=1.047;entryDx=0;entryDy=0;entryPerimeter=0;strokeWidth=1;" parent="1" source="TNLm-F983Fp5qraipqUL-157" target="2c924340bb9dbf6c-2" edge="1">
          <mxGeometry width="50" height="50" relative="1" as="geometry">
            <mxPoint x="654" y="805" as="sourcePoint" />
            <mxPoint x="514" y="645" as="targetPoint" />
          </mxGeometry>
        </mxCell>
        <mxCell id="TNLm-F983Fp5qraipqUL-157" value="Manage" style="rhombus;whiteSpace=wrap;html=1;strokeWidth=1;" parent="1" vertex="1">
          <mxGeometry x="614" y="745" width="80" height="80" as="geometry" />
        </mxCell>
        <mxCell id="TNLm-F983Fp5qraipqUL-158" value="" style="endArrow=none;html=1;rounded=0;exitX=1;exitY=1;exitDx=0;exitDy=0;strokeWidth=1;" parent="1" source="TNLm-F983Fp5qraipqUL-157" edge="1">
          <mxGeometry width="50" height="50" relative="1" as="geometry">
            <mxPoint x="684" y="805" as="sourcePoint" />
            <mxPoint x="860" y="945" as="targetPoint" />
          </mxGeometry>
        </mxCell>
        <mxCell id="TNLm-F983Fp5qraipqUL-159" value="" style="endArrow=none;html=1;rounded=0;entryX=0.313;entryY=1.001;entryDx=0;entryDy=0;exitX=0;exitY=0;exitDx=0;exitDy=0;entryPerimeter=0;strokeWidth=1;" parent="1" target="2c924340bb9dbf6c-2" edge="1">
          <mxGeometry width="50" height="50" relative="1" as="geometry">
            <mxPoint x="628" y="769" as="sourcePoint" />
            <mxPoint x="501.51999999999975" y="640.1199999999999" as="targetPoint" />
          </mxGeometry>
        </mxCell>
        <mxCell id="TNLm-F983Fp5qraipqUL-161" value="1" style="text;html=1;align=center;verticalAlign=middle;whiteSpace=wrap;rounded=0;strokeWidth=1;" parent="1" vertex="1">
          <mxGeometry x="528" y="670" width="60" height="30" as="geometry" />
        </mxCell>
        <mxCell id="TNLm-F983Fp5qraipqUL-162" value="1" style="text;html=1;align=center;verticalAlign=middle;whiteSpace=wrap;rounded=0;strokeWidth=1;" parent="1" vertex="1">
          <mxGeometry x="720" y="865" width="60" height="30" as="geometry" />
        </mxCell>
        <mxCell id="TNLm-F983Fp5qraipqUL-173" value="" style="endArrow=none;html=1;rounded=0;strokeWidth=1;" parent="1" source="TNLm-F983Fp5qraipqUL-175" edge="1">
          <mxGeometry width="50" height="50" relative="1" as="geometry">
            <mxPoint x="680" y="380" as="sourcePoint" />
            <mxPoint x="750" y="270" as="targetPoint" />
          </mxGeometry>
        </mxCell>
        <mxCell id="TNLm-F983Fp5qraipqUL-174" value="" style="endArrow=none;html=1;rounded=0;entryX=0;entryY=1;entryDx=0;entryDy=0;exitX=0.61;exitY=0.208;exitDx=0;exitDy=0;exitPerimeter=0;strokeWidth=1;" parent="1" source="TNLm-F983Fp5qraipqUL-175" edge="1">
          <mxGeometry width="50" height="50" relative="1" as="geometry">
            <mxPoint x="680" y="370" as="sourcePoint" />
            <mxPoint x="745.0735931288073" y="268.2842712474617" as="targetPoint" />
          </mxGeometry>
        </mxCell>
        <mxCell id="TNLm-F983Fp5qraipqUL-177" value="" style="endArrow=none;html=1;rounded=0;strokeWidth=1;" parent="1" target="TNLm-F983Fp5qraipqUL-175" edge="1">
          <mxGeometry width="50" height="50" relative="1" as="geometry">
            <mxPoint x="680" y="380" as="sourcePoint" />
            <mxPoint x="750" y="270" as="targetPoint" />
          </mxGeometry>
        </mxCell>
        <mxCell id="TNLm-F983Fp5qraipqUL-175" value="Has" style="rhombus;whiteSpace=wrap;html=1;strokeWidth=1;" parent="1" vertex="1">
          <mxGeometry x="622.5" y="374" width="80" height="80" as="geometry" />
        </mxCell>
        <mxCell id="TNLm-F983Fp5qraipqUL-180" value="" style="endArrow=none;html=1;rounded=0;strokeWidth=1;" parent="1" edge="1">
          <mxGeometry width="50" height="50" relative="1" as="geometry">
            <mxPoint x="580" y="550" as="sourcePoint" />
            <mxPoint x="640" y="430" as="targetPoint" />
          </mxGeometry>
        </mxCell>
        <mxCell id="TNLm-F983Fp5qraipqUL-181" value="1" style="text;html=1;align=center;verticalAlign=middle;whiteSpace=wrap;rounded=0;strokeWidth=1;" parent="1" vertex="1">
          <mxGeometry x="557" y="484" width="60" height="30" as="geometry" />
        </mxCell>
        <mxCell id="TNLm-F983Fp5qraipqUL-184" value="M" style="text;html=1;align=center;verticalAlign=middle;whiteSpace=wrap;rounded=0;strokeWidth=1;" parent="1" vertex="1">
          <mxGeometry x="689" y="263" width="60" height="30" as="geometry" />
        </mxCell>
        <mxCell id="TNLm-F983Fp5qraipqUL-186" value="Has" style="rhombus;whiteSpace=wrap;html=1;strokeWidth=1;" parent="1" vertex="1">
          <mxGeometry x="911.5" y="364" width="80" height="80" as="geometry" />
        </mxCell>
        <mxCell id="TNLm-F983Fp5qraipqUL-187" value="" style="endArrow=none;html=1;rounded=0;exitX=0;exitY=0;exitDx=0;exitDy=0;strokeWidth=1;" parent="1" source="TNLm-F983Fp5qraipqUL-186" edge="1">
          <mxGeometry width="50" height="50" relative="1" as="geometry">
            <mxPoint x="780" y="320" as="sourcePoint" />
            <mxPoint x="830" y="270" as="targetPoint" />
          </mxGeometry>
        </mxCell>
        <mxCell id="TNLm-F983Fp5qraipqUL-188" value="" style="endArrow=none;html=1;rounded=0;strokeWidth=1;" parent="1" edge="1">
          <mxGeometry width="50" height="50" relative="1" as="geometry">
            <mxPoint x="930" y="390" as="sourcePoint" />
            <mxPoint x="820" y="270" as="targetPoint" />
          </mxGeometry>
        </mxCell>
        <mxCell id="TNLm-F983Fp5qraipqUL-189" value="" style="endArrow=none;html=1;rounded=0;entryX=1;entryY=1;entryDx=0;entryDy=0;strokeWidth=1;" parent="1" target="TNLm-F983Fp5qraipqUL-186" edge="1">
          <mxGeometry width="50" height="50" relative="1" as="geometry">
            <mxPoint x="1050" y="560" as="sourcePoint" />
            <mxPoint x="1100" y="510" as="targetPoint" />
          </mxGeometry>
        </mxCell>
        <mxCell id="TNLm-F983Fp5qraipqUL-190" value="1" style="text;html=1;align=center;verticalAlign=middle;whiteSpace=wrap;rounded=0;strokeWidth=1;" parent="1" vertex="1">
          <mxGeometry x="979" y="514" width="60" height="30" as="geometry" />
        </mxCell>
        <mxCell id="TNLm-F983Fp5qraipqUL-191" value="M" style="text;html=1;align=center;verticalAlign=middle;whiteSpace=wrap;rounded=0;strokeWidth=1;" parent="1" vertex="1">
          <mxGeometry x="794" y="286" width="60" height="30" as="geometry" />
        </mxCell>
        <mxCell id="TNLm-F983Fp5qraipqUL-199" value="" style="endArrow=none;html=1;rounded=0;strokeWidth=1;" parent="1" edge="1">
          <mxGeometry width="50" height="50" relative="1" as="geometry">
            <mxPoint x="1320" y="250" as="sourcePoint" />
            <mxPoint x="1570" y="250" as="targetPoint" />
          </mxGeometry>
        </mxCell>
        <mxCell id="TNLm-F983Fp5qraipqUL-200" value="Learn" style="rhombus;whiteSpace=wrap;html=1;strokeWidth=1;" parent="1" vertex="1">
          <mxGeometry x="1242" y="206" width="80" height="80" as="geometry" />
        </mxCell>
        <mxCell id="TNLm-F983Fp5qraipqUL-201" value="" style="endArrow=none;html=1;rounded=0;strokeWidth=1;" parent="1" edge="1">
          <mxGeometry width="50" height="50" relative="1" as="geometry">
            <mxPoint x="850" y="250" as="sourcePoint" />
            <mxPoint x="1241" y="247" as="targetPoint" />
          </mxGeometry>
        </mxCell>
        <mxCell id="TNLm-F983Fp5qraipqUL-202" value="M" style="text;html=1;align=center;verticalAlign=middle;whiteSpace=wrap;rounded=0;strokeWidth=1;" parent="1" vertex="1">
          <mxGeometry x="860" y="256" width="60" height="30" as="geometry" />
        </mxCell>
        <mxCell id="TNLm-F983Fp5qraipqUL-203" value="M" style="text;html=1;align=center;verticalAlign=middle;whiteSpace=wrap;rounded=0;strokeWidth=1;" parent="1" vertex="1">
          <mxGeometry x="1491" y="250" width="60" height="30" as="geometry" />
        </mxCell>
        <mxCell id="TNLm-F983Fp5qraipqUL-204" value="Has" style="rhombus;whiteSpace=wrap;html=1;strokeWidth=1;" parent="1" vertex="1">
          <mxGeometry x="1340" y="305" width="80" height="80" as="geometry" />
        </mxCell>
        <mxCell id="TNLm-F983Fp5qraipqUL-205" value="" style="endArrow=none;html=1;rounded=0;exitX=1;exitY=0.75;exitDx=0;exitDy=0;strokeWidth=1;" parent="1" source="TNLm-F983Fp5qraipqUL-23" edge="1">
          <mxGeometry width="50" height="50" relative="1" as="geometry">
            <mxPoint x="1310" y="480" as="sourcePoint" />
            <mxPoint x="990" y="350" as="targetPoint" />
          </mxGeometry>
        </mxCell>
        <mxCell id="TNLm-F983Fp5qraipqUL-206" value="" style="endArrow=none;html=1;rounded=0;exitX=1;exitY=1;exitDx=0;exitDy=0;strokeWidth=1;" parent="1" source="TNLm-F983Fp5qraipqUL-23" edge="1">
          <mxGeometry width="50" height="50" relative="1" as="geometry">
            <mxPoint x="1300" y="470" as="sourcePoint" />
            <mxPoint x="990" y="360" as="targetPoint" />
          </mxGeometry>
        </mxCell>
        <mxCell id="TNLm-F983Fp5qraipqUL-208" value="" style="endArrow=none;html=1;rounded=0;exitX=1;exitY=0;exitDx=0;exitDy=0;strokeWidth=1;" parent="1" source="TNLm-F983Fp5qraipqUL-204" edge="1">
          <mxGeometry width="50" height="50" relative="1" as="geometry">
            <mxPoint x="1399" y="394" as="sourcePoint" />
            <mxPoint x="1579" y="270" as="targetPoint" />
          </mxGeometry>
        </mxCell>
        <mxCell id="TNLm-F983Fp5qraipqUL-209" value="M" style="text;html=1;align=center;verticalAlign=middle;whiteSpace=wrap;rounded=0;strokeWidth=1;" parent="1" vertex="1">
          <mxGeometry x="1252" y="336" width="60" height="30" as="geometry" />
        </mxCell>
        <mxCell id="TNLm-F983Fp5qraipqUL-213" value="Teach" style="rhombus;whiteSpace=wrap;html=1;strokeWidth=1;" parent="1" vertex="1">
          <mxGeometry x="1375" y="565" width="80" height="80" as="geometry" />
        </mxCell>
        <mxCell id="TNLm-F983Fp5qraipqUL-214" value="" style="endArrow=none;html=1;rounded=0;exitX=1;exitY=0;exitDx=0;exitDy=0;entryX=0.548;entryY=1.021;entryDx=0;entryDy=0;entryPerimeter=0;strokeWidth=1;" parent="1" source="TNLm-F983Fp5qraipqUL-213" target="TNLm-F983Fp5qraipqUL-1" edge="1">
          <mxGeometry width="50" height="50" relative="1" as="geometry">
            <mxPoint x="1590" y="340" as="sourcePoint" />
            <mxPoint x="1640" y="290" as="targetPoint" />
          </mxGeometry>
        </mxCell>
        <mxCell id="TNLm-F983Fp5qraipqUL-215" value="" style="endArrow=none;html=1;rounded=0;exitX=1;exitY=0.5;exitDx=0;exitDy=0;entryX=0;entryY=1;entryDx=0;entryDy=0;strokeWidth=1;" parent="1" source="2c924340bb9dbf6c-52" target="TNLm-F983Fp5qraipqUL-213" edge="1">
          <mxGeometry width="50" height="50" relative="1" as="geometry">
            <mxPoint x="1430" y="710" as="sourcePoint" />
            <mxPoint x="1480" y="660" as="targetPoint" />
          </mxGeometry>
        </mxCell>
        <mxCell id="TNLm-F983Fp5qraipqUL-217" value="" style="endArrow=none;html=1;rounded=0;exitX=0.612;exitY=0.233;exitDx=0;exitDy=0;exitPerimeter=0;entryX=0.548;entryY=0.957;entryDx=0;entryDy=0;entryPerimeter=0;strokeWidth=1;" parent="1" source="TNLm-F983Fp5qraipqUL-213" target="TNLm-F983Fp5qraipqUL-1" edge="1">
          <mxGeometry width="50" height="50" relative="1" as="geometry">
            <mxPoint x="1580" y="340" as="sourcePoint" />
            <mxPoint x="1630" y="290" as="targetPoint" />
          </mxGeometry>
        </mxCell>
        <mxCell id="TNLm-F983Fp5qraipqUL-218" value="M" style="text;html=1;align=center;verticalAlign=middle;whiteSpace=wrap;rounded=0;strokeWidth=1;" parent="1" vertex="1">
          <mxGeometry x="1560" y="306" width="60" height="30" as="geometry" />
        </mxCell>
        <mxCell id="TNLm-F983Fp5qraipqUL-219" value="M" style="text;html=1;align=center;verticalAlign=middle;whiteSpace=wrap;rounded=0;strokeWidth=1;" parent="1" vertex="1">
          <mxGeometry x="1035" y="851" width="60" height="30" as="geometry" />
        </mxCell>
        <mxCell id="TNLm-F983Fp5qraipqUL-222" value="" style="edgeStyle=none;rounded=1;html=1;labelBackgroundColor=none;startArrow=none;startFill=0;startSize=5;endArrow=classicThin;endFill=1;endSize=5;jettySize=auto;orthogonalLoop=1;strokeColor=#B3B3B3;strokeWidth=1;fontFamily=Verdana;fontSize=12" parent="1" target="TNLm-F983Fp5qraipqUL-57" edge="1">
          <mxGeometry relative="1" as="geometry">
            <mxPoint x="1967" y="82" as="sourcePoint" />
            <Array as="points" />
            <mxPoint x="2097" y="89" as="targetPoint" />
          </mxGeometry>
        </mxCell>
        <mxCell id="TNLm-F983Fp5qraipqUL-57" value="&lt;b&gt;Questions&lt;/b&gt;" style="whiteSpace=wrap;html=1;rounded=1;shadow=1;comic=0;labelBackgroundColor=none;strokeWidth=1;fontFamily=Verdana;fontSize=12;align=center;fillColor=#dae8fc;strokeColor=#6c8ebf;" parent="1" vertex="1">
          <mxGeometry x="1909" y="22" width="120" height="80" as="geometry" />
        </mxCell>
        <mxCell id="TNLm-F983Fp5qraipqUL-225" value="" style="endArrow=none;html=1;rounded=0;strokeWidth=1;" parent="1" target="TNLm-F983Fp5qraipqUL-224" edge="1">
          <mxGeometry width="50" height="50" relative="1" as="geometry">
            <mxPoint x="1680" y="260" as="sourcePoint" />
            <mxPoint x="1710" y="230" as="targetPoint" />
            <Array as="points" />
          </mxGeometry>
        </mxCell>
        <mxCell id="TNLm-F983Fp5qraipqUL-226" value="" style="endArrow=none;html=1;rounded=0;exitX=0.071;exitY=0.275;exitDx=0;exitDy=0;exitPerimeter=0;entryX=1;entryY=0;entryDx=0;entryDy=0;strokeWidth=1;" parent="1" target="TNLm-F983Fp5qraipqUL-224" edge="1">
          <mxGeometry width="50" height="50" relative="1" as="geometry">
            <mxPoint x="1925" y="90" as="sourcePoint" />
            <mxPoint x="1816.3600000000001" y="422.28" as="targetPoint" />
          </mxGeometry>
        </mxCell>
        <mxCell id="TNLm-F983Fp5qraipqUL-228" value="M" style="text;html=1;align=center;verticalAlign=middle;whiteSpace=wrap;rounded=0;strokeWidth=1;" parent="1" vertex="1">
          <mxGeometry x="1864" y="87" width="63" height="30" as="geometry" />
        </mxCell>
        <mxCell id="TNLm-F983Fp5qraipqUL-229" value="1" style="text;html=1;align=center;verticalAlign=middle;whiteSpace=wrap;rounded=0;strokeWidth=1;" parent="1" vertex="1">
          <mxGeometry x="1677" y="212" width="60" height="30" as="geometry" />
        </mxCell>
        <mxCell id="TNLm-F983Fp5qraipqUL-232" value="Has" style="rhombus;whiteSpace=wrap;html=1;strokeWidth=1;" parent="1" vertex="1">
          <mxGeometry x="1949" y="-140" width="80" height="80" as="geometry" />
        </mxCell>
        <mxCell id="TNLm-F983Fp5qraipqUL-237" value="1" style="text;html=1;align=center;verticalAlign=middle;whiteSpace=wrap;rounded=0;strokeWidth=1;" parent="1" vertex="1">
          <mxGeometry x="1987" y="-23" width="60" height="30" as="geometry" />
        </mxCell>
        <mxCell id="TNLm-F983Fp5qraipqUL-238" value="Has" style="rhombus;whiteSpace=wrap;html=1;strokeWidth=1;" parent="1" vertex="1">
          <mxGeometry x="1542" y="-280" width="80" height="80" as="geometry" />
        </mxCell>
        <mxCell id="TNLm-F983Fp5qraipqUL-242" value="M" style="text;html=1;align=center;verticalAlign=middle;whiteSpace=wrap;rounded=0;strokeWidth=1;" parent="1" vertex="1">
          <mxGeometry x="2006" y="-201" width="60" height="30" as="geometry" />
        </mxCell>
        <mxCell id="TNLm-F983Fp5qraipqUL-243" value="M" style="text;html=1;align=center;verticalAlign=middle;whiteSpace=wrap;rounded=0;strokeWidth=1;" parent="1" vertex="1">
          <mxGeometry x="1421" y="-422" width="60" height="30" as="geometry" />
        </mxCell>
        <mxCell id="TNLm-F983Fp5qraipqUL-270" value="" style="endArrow=none;html=1;rounded=0;strokeWidth=1;" parent="1" target="TNLm-F983Fp5qraipqUL-224" edge="1">
          <mxGeometry width="50" height="50" relative="1" as="geometry">
            <mxPoint x="1921" y="90" as="sourcePoint" />
            <mxPoint x="1810" y="370" as="targetPoint" />
          </mxGeometry>
        </mxCell>
        <mxCell id="TNLm-F983Fp5qraipqUL-224" value="Has" style="rhombus;whiteSpace=wrap;html=1;strokeWidth=1;" parent="1" vertex="1">
          <mxGeometry x="1810" y="183" width="80" height="80" as="geometry" />
        </mxCell>
        <mxCell id="TNLm-F983Fp5qraipqUL-280" value="Choose" style="rhombus;whiteSpace=wrap;html=1;strokeWidth=1;" parent="1" vertex="1">
          <mxGeometry x="1375" y="37" width="80" height="80" as="geometry" />
        </mxCell>
        <mxCell id="TNLm-F983Fp5qraipqUL-281" value="" style="endArrow=none;html=1;rounded=0;exitX=0.947;exitY=0.366;exitDx=0;exitDy=0;exitPerimeter=0;entryX=0;entryY=0.5;entryDx=0;entryDy=0;strokeWidth=1;" parent="1" source="TNLm-F983Fp5qraipqUL-23" target="TNLm-F983Fp5qraipqUL-280" edge="1">
          <mxGeometry width="50" height="50" relative="1" as="geometry">
            <mxPoint x="1330" y="120" as="sourcePoint" />
            <mxPoint x="1380" y="70" as="targetPoint" />
          </mxGeometry>
        </mxCell>
        <mxCell id="TNLm-F983Fp5qraipqUL-282" value="" style="endArrow=none;html=1;rounded=0;entryX=0;entryY=0.5;entryDx=0;entryDy=0;strokeWidth=1;" parent="1" target="TNLm-F983Fp5qraipqUL-57" edge="1">
          <mxGeometry width="50" height="50" relative="1" as="geometry">
            <mxPoint x="1450" y="75" as="sourcePoint" />
            <mxPoint x="1500" y="25" as="targetPoint" />
          </mxGeometry>
        </mxCell>
        <mxCell id="TNLm-F983Fp5qraipqUL-285" value="" style="endArrow=none;html=1;rounded=0;exitX=0.5;exitY=0;exitDx=0;exitDy=0;strokeWidth=1;" parent="1" source="TNLm-F983Fp5qraipqUL-232" edge="1">
          <mxGeometry width="50" height="50" relative="1" as="geometry">
            <mxPoint x="1950" y="-160" as="sourcePoint" />
            <mxPoint x="2000" y="-210" as="targetPoint" />
          </mxGeometry>
        </mxCell>
        <mxCell id="TNLm-F983Fp5qraipqUL-286" value="" style="endArrow=none;html=1;rounded=0;strokeWidth=1;" parent="1" edge="1">
          <mxGeometry width="50" height="50" relative="1" as="geometry">
            <mxPoint x="2000" y="-130" as="sourcePoint" />
            <mxPoint x="2020" y="-210" as="targetPoint" />
          </mxGeometry>
        </mxCell>
        <mxCell id="TNLm-F983Fp5qraipqUL-287" value="" style="endArrow=none;html=1;rounded=0;strokeWidth=1;" parent="1" edge="1">
          <mxGeometry width="50" height="50" relative="1" as="geometry">
            <mxPoint x="1990" y="20" as="sourcePoint" />
            <mxPoint x="2000" y="-70" as="targetPoint" />
          </mxGeometry>
        </mxCell>
        <mxCell id="TNLm-F983Fp5qraipqUL-292" value="" style="endArrow=none;html=1;rounded=0;exitX=0.588;exitY=0.146;exitDx=0;exitDy=0;entryX=0.028;entryY=0.817;entryDx=0;entryDy=0;entryPerimeter=0;exitPerimeter=0;strokeWidth=1;" parent="1" edge="1">
          <mxGeometry width="50" height="50" relative="1" as="geometry">
            <mxPoint x="1425.04" y="44.679999999999836" as="sourcePoint" />
            <mxPoint x="1958.3600000000001" y="-228.6400000000001" as="targetPoint" />
          </mxGeometry>
        </mxCell>
        <mxCell id="TNLm-F983Fp5qraipqUL-294" value="M" style="text;html=1;align=center;verticalAlign=middle;whiteSpace=wrap;rounded=0;strokeWidth=1;" parent="1" vertex="1">
          <mxGeometry x="896" y="179" width="60" height="30" as="geometry" />
        </mxCell>
        <mxCell id="TNLm-F983Fp5qraipqUL-295" value="M" style="text;html=1;align=center;verticalAlign=middle;whiteSpace=wrap;rounded=0;strokeWidth=1;" parent="1" vertex="1">
          <mxGeometry x="1889" y="-259" width="60" height="30" as="geometry" />
        </mxCell>
        <mxCell id="TNLm-F983Fp5qraipqUL-297" value="" style="endArrow=none;html=1;rounded=0;entryX=0;entryY=0;entryDx=0;entryDy=0;strokeWidth=1;" parent="1" target="TNLm-F983Fp5qraipqUL-57" edge="1">
          <mxGeometry width="50" height="50" relative="1" as="geometry">
            <mxPoint x="1600" y="-210" as="sourcePoint" />
            <mxPoint x="1650" y="-260" as="targetPoint" />
          </mxGeometry>
        </mxCell>
        <mxCell id="TNLm-F983Fp5qraipqUL-298" value="" style="endArrow=none;html=1;rounded=0;exitX=0;exitY=0;exitDx=0;exitDy=0;strokeWidth=1;" parent="1" source="TNLm-F983Fp5qraipqUL-238" edge="1">
          <mxGeometry width="50" height="50" relative="1" as="geometry">
            <mxPoint x="1370" y="-370" as="sourcePoint" />
            <mxPoint x="1420" y="-420" as="targetPoint" />
          </mxGeometry>
        </mxCell>
        <mxCell id="TNLm-F983Fp5qraipqUL-299" value="" style="endArrow=none;html=1;rounded=0;strokeWidth=1;" parent="1" edge="1">
          <mxGeometry width="50" height="50" relative="1" as="geometry">
            <mxPoint x="1560" y="-250" as="sourcePoint" />
            <mxPoint x="1400" y="-420" as="targetPoint" />
          </mxGeometry>
        </mxCell>
        <mxCell id="TNLm-F983Fp5qraipqUL-300" value="M" style="text;html=1;align=center;verticalAlign=middle;whiteSpace=wrap;rounded=0;strokeWidth=1;" parent="1" vertex="1">
          <mxGeometry x="1884" y="-23" width="63" height="30" as="geometry" />
        </mxCell>
        <mxCell id="TNLm-F983Fp5qraipqUL-302" value="" style="endArrow=none;html=1;rounded=0;strokeWidth=1;" parent="1" edge="1">
          <mxGeometry width="50" height="50" relative="1" as="geometry">
            <mxPoint x="1419" y="40" as="sourcePoint" />
            <mxPoint x="1380" y="-420" as="targetPoint" />
          </mxGeometry>
        </mxCell>
        <mxCell id="TNLm-F983Fp5qraipqUL-304" value="" style="endArrow=classic;html=1;rounded=0;exitX=0.5;exitY=0;exitDx=0;exitDy=0;strokeWidth=1;" parent="1" source="TNLm-F983Fp5qraipqUL-88" edge="1">
          <mxGeometry width="50" height="50" relative="1" as="geometry">
            <mxPoint x="1340" y="-560" as="sourcePoint" />
            <mxPoint x="1390" y="-610" as="targetPoint" />
          </mxGeometry>
        </mxCell>
        <mxCell id="qw9-CJyTZ9ZZRqgVCmVu-5" value="Track" style="whiteSpace=wrap;html=1;rounded=1;fillColor=#dae8fc;strokeColor=#6c8ebf;strokeWidth=1;" parent="1" vertex="1">
          <mxGeometry x="1149" y="360" width="120" height="80" as="geometry" />
        </mxCell>
        <mxCell id="qw9-CJyTZ9ZZRqgVCmVu-6" value="" style="endArrow=none;html=1;rounded=0;exitX=1;exitY=0.5;exitDx=0;exitDy=0;strokeWidth=1;" parent="1" source="qw9-CJyTZ9ZZRqgVCmVu-5" edge="1">
          <mxGeometry width="50" height="50" relative="1" as="geometry">
            <mxPoint x="1300" y="410" as="sourcePoint" />
            <mxPoint x="1350" y="360" as="targetPoint" />
          </mxGeometry>
        </mxCell>
        <mxCell id="qw9-CJyTZ9ZZRqgVCmVu-7" value="&lt;span&gt;&lt;u&gt;ID&lt;/u&gt;&lt;/span&gt;" style="whiteSpace=wrap;html=1;rounded=1;shadow=1;comic=0;labelBackgroundColor=none;strokeWidth=1;fontFamily=Verdana;fontSize=12;align=center;arcSize=50;fillColor=#ffe6cc;strokeColor=#d79b00;" parent="1" vertex="1">
          <mxGeometry x="1225" y="480" width="100" height="20" as="geometry" />
        </mxCell>
        <mxCell id="qw9-CJyTZ9ZZRqgVCmVu-8" value="Name" style="whiteSpace=wrap;html=1;rounded=1;shadow=1;comic=0;labelBackgroundColor=none;strokeWidth=1;fontFamily=Verdana;fontSize=12;align=center;arcSize=50;fillColor=#ffe6cc;strokeColor=#d79b00;" parent="1" vertex="1">
          <mxGeometry x="1184.5" y="534" width="100" height="20" as="geometry" />
        </mxCell>
        <mxCell id="qw9-CJyTZ9ZZRqgVCmVu-10" value="" style="endArrow=classic;html=1;rounded=0;entryX=0.623;entryY=-0.117;entryDx=0;entryDy=0;entryPerimeter=0;strokeWidth=1;exitX=0.75;exitY=1;exitDx=0;exitDy=0;" parent="1" source="qw9-CJyTZ9ZZRqgVCmVu-5" target="qw9-CJyTZ9ZZRqgVCmVu-7" edge="1">
          <mxGeometry width="50" height="50" relative="1" as="geometry">
            <mxPoint x="1180" y="370" as="sourcePoint" />
            <mxPoint x="1230" y="320" as="targetPoint" />
          </mxGeometry>
        </mxCell>
        <mxCell id="qw9-CJyTZ9ZZRqgVCmVu-11" value="" style="endArrow=classic;html=1;rounded=0;exitX=0.5;exitY=1;exitDx=0;exitDy=0;entryX=0.25;entryY=0;entryDx=0;entryDy=0;strokeWidth=1;" parent="1" source="qw9-CJyTZ9ZZRqgVCmVu-5" target="qw9-CJyTZ9ZZRqgVCmVu-8" edge="1">
          <mxGeometry width="50" height="50" relative="1" as="geometry">
            <mxPoint x="1040" y="410" as="sourcePoint" />
            <mxPoint x="1090" y="360" as="targetPoint" />
          </mxGeometry>
        </mxCell>
        <mxCell id="qw9-CJyTZ9ZZRqgVCmVu-12" value="1" style="text;html=1;align=center;verticalAlign=middle;whiteSpace=wrap;rounded=0;strokeWidth=1;" parent="1" vertex="1">
          <mxGeometry x="1095" y="355" width="60" height="30" as="geometry" />
        </mxCell>
        <mxCell id="qw9-CJyTZ9ZZRqgVCmVu-13" value="1" style="text;html=1;align=center;verticalAlign=middle;whiteSpace=wrap;rounded=0;strokeWidth=1;" parent="1" vertex="1">
          <mxGeometry x="1079" y="524" width="60" height="30" as="geometry" />
        </mxCell>
        <mxCell id="qw9-CJyTZ9ZZRqgVCmVu-14" value="" style="endArrow=none;html=1;rounded=0;exitX=1;exitY=0.5;exitDx=0;exitDy=0;strokeWidth=1;" parent="1" source="TNLm-F983Fp5qraipqUL-88" edge="1">
          <mxGeometry width="50" height="50" relative="1" as="geometry">
            <mxPoint x="1490" y="-440" as="sourcePoint" />
            <mxPoint x="2490" y="-470" as="targetPoint" />
          </mxGeometry>
        </mxCell>
        <mxCell id="qw9-CJyTZ9ZZRqgVCmVu-15" value="" style="endArrow=none;html=1;rounded=0;strokeWidth=1;" parent="1" edge="1">
          <mxGeometry width="50" height="50" relative="1" as="geometry">
            <mxPoint x="2480" y="900" as="sourcePoint" />
            <mxPoint x="2490" y="-470" as="targetPoint" />
          </mxGeometry>
        </mxCell>
        <mxCell id="qw9-CJyTZ9ZZRqgVCmVu-16" value="" style="endArrow=none;html=1;rounded=0;exitX=1;exitY=0.5;exitDx=0;exitDy=0;strokeWidth=1;" parent="1" source="qw9-CJyTZ9ZZRqgVCmVu-17" edge="1">
          <mxGeometry width="50" height="50" relative="1" as="geometry">
            <mxPoint x="2430" y="945" as="sourcePoint" />
            <mxPoint x="2480" y="895" as="targetPoint" />
          </mxGeometry>
        </mxCell>
        <mxCell id="qw9-CJyTZ9ZZRqgVCmVu-17" value="Create" style="rhombus;whiteSpace=wrap;html=1;strokeWidth=1;" parent="1" vertex="1">
          <mxGeometry x="2171" y="840" width="80" height="80" as="geometry" />
        </mxCell>
        <mxCell id="qw9-CJyTZ9ZZRqgVCmVu-18" value="" style="endArrow=none;html=1;rounded=0;strokeWidth=1;" parent="1" edge="1">
          <mxGeometry width="50" height="50" relative="1" as="geometry">
            <mxPoint x="980" y="960" as="sourcePoint" />
            <mxPoint x="2170" y="880" as="targetPoint" />
          </mxGeometry>
        </mxCell>
        <mxCell id="qw9-CJyTZ9ZZRqgVCmVu-19" value="1" style="text;html=1;align=center;verticalAlign=middle;whiteSpace=wrap;rounded=0;strokeWidth=1;" parent="1" vertex="1">
          <mxGeometry x="1165" y="891" width="60" height="30" as="geometry" />
        </mxCell>
        <mxCell id="qw9-CJyTZ9ZZRqgVCmVu-20" value="M" style="text;html=1;align=center;verticalAlign=middle;whiteSpace=wrap;rounded=0;strokeWidth=1;" parent="1" vertex="1">
          <mxGeometry x="1542" y="-500" width="60" height="30" as="geometry" />
        </mxCell>
        <mxCell id="qw9-CJyTZ9ZZRqgVCmVu-22" value="" style="endArrow=none;html=1;rounded=0;exitX=1;exitY=0.5;exitDx=0;exitDy=0;strokeWidth=1;" parent="1" edge="1">
          <mxGeometry width="50" height="50" relative="1" as="geometry">
            <mxPoint x="1460" y="-450" as="sourcePoint" />
            <mxPoint x="2490" y="-460" as="targetPoint" />
          </mxGeometry>
        </mxCell>
        <mxCell id="qw9-CJyTZ9ZZRqgVCmVu-23" value="" style="endArrow=none;html=1;rounded=0;strokeWidth=1;" parent="1" edge="1">
          <mxGeometry width="50" height="50" relative="1" as="geometry">
            <mxPoint x="2468" y="900" as="sourcePoint" />
            <mxPoint x="2478" y="-470" as="targetPoint" />
          </mxGeometry>
        </mxCell>
        <mxCell id="tUvqFTHjRJm8UM8evL2Z-2" value="email" style="whiteSpace=wrap;html=1;rounded=1;shadow=1;comic=0;labelBackgroundColor=none;strokeWidth=1;fontFamily=Verdana;fontSize=12;align=center;arcSize=50;fillColor=#ffe6cc;strokeColor=#d79b00;" parent="1" vertex="1">
          <mxGeometry x="775" y="52" width="100" height="20" as="geometry" />
        </mxCell>
        <mxCell id="tUvqFTHjRJm8UM8evL2Z-3" value="password" style="whiteSpace=wrap;html=1;rounded=1;shadow=1;comic=0;labelBackgroundColor=none;strokeWidth=1;fontFamily=Verdana;fontSize=12;align=center;arcSize=50;fillColor=#ffe6cc;strokeColor=#d79b00;" parent="1" vertex="1">
          <mxGeometry x="591" y="52" width="100" height="20" as="geometry" />
        </mxCell>
        <mxCell id="tUvqFTHjRJm8UM8evL2Z-4" value="" style="edgeStyle=none;rounded=1;html=1;labelBackgroundColor=none;startArrow=none;startFill=0;startSize=5;endArrow=classicThin;endFill=1;endSize=5;jettySize=auto;orthogonalLoop=1;strokeColor=#B3B3B3;strokeWidth=1;fontFamily=Verdana;fontSize=12;entryX=0.25;entryY=1;entryDx=0;entryDy=0;exitX=0.25;exitY=0;exitDx=0;exitDy=0;" parent="1" source="TNLm-F983Fp5qraipqUL-23" target="tUvqFTHjRJm8UM8evL2Z-2" edge="1">
          <mxGeometry relative="1" as="geometry">
            <mxPoint x="790" y="210" as="sourcePoint" />
            <Array as="points" />
            <mxPoint x="828" y="152" as="targetPoint" />
          </mxGeometry>
        </mxCell>
        <mxCell id="tUvqFTHjRJm8UM8evL2Z-5" value="" style="edgeStyle=none;rounded=1;html=1;labelBackgroundColor=none;startArrow=none;startFill=0;startSize=5;endArrow=classicThin;endFill=1;endSize=5;jettySize=auto;orthogonalLoop=1;strokeColor=#B3B3B3;strokeWidth=1;fontFamily=Verdana;fontSize=12;exitX=0;exitY=0;exitDx=0;exitDy=0;" parent="1" source="TNLm-F983Fp5qraipqUL-23" edge="1">
          <mxGeometry relative="1" as="geometry">
            <mxPoint x="800" y="220" as="sourcePoint" />
            <Array as="points" />
            <mxPoint x="640" y="70" as="targetPoint" />
          </mxGeometry>
        </mxCell>
        <mxCell id="tUvqFTHjRJm8UM8evL2Z-6" value="password" style="whiteSpace=wrap;html=1;rounded=1;shadow=1;comic=0;labelBackgroundColor=none;strokeWidth=1;fontFamily=Verdana;fontSize=12;align=center;arcSize=50;fillColor=#ffe6cc;strokeColor=#d79b00;" parent="1" vertex="1">
          <mxGeometry x="771" y="1100" width="100" height="20" as="geometry" />
        </mxCell>
        <mxCell id="tUvqFTHjRJm8UM8evL2Z-7" value="email" style="whiteSpace=wrap;html=1;rounded=1;shadow=1;comic=0;labelBackgroundColor=none;strokeWidth=1;fontFamily=Verdana;fontSize=12;align=center;arcSize=50;fillColor=#ffe6cc;strokeColor=#d79b00;" parent="1" vertex="1">
          <mxGeometry x="891.5" y="1100" width="100" height="20" as="geometry" />
        </mxCell>
        <mxCell id="tUvqFTHjRJm8UM8evL2Z-8" value="" style="edgeStyle=none;rounded=1;html=1;labelBackgroundColor=none;startArrow=none;startFill=0;startSize=5;endArrow=classicThin;endFill=1;endSize=5;jettySize=auto;orthogonalLoop=1;strokeColor=#B3B3B3;strokeWidth=1;fontFamily=Verdana;fontSize=12;entryX=0.5;entryY=0;entryDx=0;entryDy=0;exitX=0;exitY=1;exitDx=0;exitDy=0;" parent="1" source="2c924340bb9dbf6c-52" target="tUvqFTHjRJm8UM8evL2Z-6" edge="1">
          <mxGeometry relative="1" as="geometry">
            <mxPoint x="931.5" y="1004" as="sourcePoint" />
            <Array as="points">
              <mxPoint x="880" y="990" />
            </Array>
            <mxPoint x="820" y="1044" as="targetPoint" />
          </mxGeometry>
        </mxCell>
        <mxCell id="tUvqFTHjRJm8UM8evL2Z-9" value="" style="edgeStyle=none;rounded=1;html=1;labelBackgroundColor=none;startArrow=none;startFill=0;startSize=5;endArrow=classicThin;endFill=1;endSize=5;jettySize=auto;orthogonalLoop=1;strokeColor=#B3B3B3;strokeWidth=1;fontFamily=Verdana;fontSize=12;entryX=0.75;entryY=0;entryDx=0;entryDy=0;" parent="1" source="2c924340bb9dbf6c-52" target="tUvqFTHjRJm8UM8evL2Z-7" edge="1">
          <mxGeometry relative="1" as="geometry">
            <mxPoint x="941.5" y="1014" as="sourcePoint" />
            <Array as="points">
              <mxPoint x="930" y="990" />
            </Array>
            <mxPoint x="950" y="1090" as="targetPoint" />
          </mxGeometry>
        </mxCell>
        <mxCell id="tUvqFTHjRJm8UM8evL2Z-14" value="Has" style="rhombus;whiteSpace=wrap;html=1;strokeWidth=1;" parent="1" vertex="1">
          <mxGeometry x="989" y="316" width="80" height="80" as="geometry" />
        </mxCell>
        <mxCell id="tUvqFTHjRJm8UM8evL2Z-15" value="" style="endArrow=none;html=1;rounded=0;strokeWidth=1;entryX=0;entryY=0.5;entryDx=0;entryDy=0;exitX=1;exitY=0.5;exitDx=0;exitDy=0;" parent="1" source="tUvqFTHjRJm8UM8evL2Z-14" target="qw9-CJyTZ9ZZRqgVCmVu-5" edge="1">
          <mxGeometry width="50" height="50" relative="1" as="geometry">
            <mxPoint x="1080" y="300" as="sourcePoint" />
            <mxPoint x="1000" y="360" as="targetPoint" />
            <Array as="points" />
          </mxGeometry>
        </mxCell>
        <mxCell id="tUvqFTHjRJm8UM8evL2Z-17" value="M" style="text;html=1;align=center;verticalAlign=middle;whiteSpace=wrap;rounded=0;strokeWidth=1;" parent="1" vertex="1">
          <mxGeometry x="1510" y="200" width="60" height="30" as="geometry" />
        </mxCell>
        <mxCell id="tUvqFTHjRJm8UM8evL2Z-18" value="" style="endArrow=none;html=1;rounded=0;strokeWidth=1;" parent="1" edge="1">
          <mxGeometry width="50" height="50" relative="1" as="geometry">
            <mxPoint x="860" y="260" as="sourcePoint" />
            <mxPoint x="1251" y="257" as="targetPoint" />
          </mxGeometry>
        </mxCell>
        <mxCell id="tUvqFTHjRJm8UM8evL2Z-19" value="Has" style="rhombus;whiteSpace=wrap;html=1;strokeWidth=1;" parent="1" vertex="1">
          <mxGeometry x="1059" y="434" width="80" height="80" as="geometry" />
        </mxCell>
        <mxCell id="tUvqFTHjRJm8UM8evL2Z-20" value="" style="endArrow=none;html=1;rounded=0;strokeWidth=1;exitX=0.5;exitY=0;exitDx=0;exitDy=0;" parent="1" source="tUvqFTHjRJm8UM8evL2Z-19" edge="1">
          <mxGeometry width="50" height="50" relative="1" as="geometry">
            <mxPoint x="1079" y="366" as="sourcePoint" />
            <mxPoint x="1150" y="420" as="targetPoint" />
            <Array as="points" />
          </mxGeometry>
        </mxCell>
        <mxCell id="tUvqFTHjRJm8UM8evL2Z-21" value="" style="endArrow=none;html=1;rounded=0;strokeWidth=1;entryX=0.5;entryY=0;entryDx=0;entryDy=0;exitX=0.513;exitY=0.95;exitDx=0;exitDy=0;exitPerimeter=0;" parent="1" source="tUvqFTHjRJm8UM8evL2Z-19" target="2c924340bb9dbf6c-3" edge="1">
          <mxGeometry width="50" height="50" relative="1" as="geometry">
            <mxPoint x="1075" y="500" as="sourcePoint" />
            <mxPoint x="1155" y="544" as="targetPoint" />
            <Array as="points" />
          </mxGeometry>
        </mxCell>
        <mxCell id="tUvqFTHjRJm8UM8evL2Z-22" value="M" style="text;html=1;align=center;verticalAlign=middle;whiteSpace=wrap;rounded=0;strokeWidth=1;" parent="1" vertex="1">
          <mxGeometry x="1100" y="434" width="60" height="30" as="geometry" />
        </mxCell>
        <mxCell id="tUvqFTHjRJm8UM8evL2Z-24" value="" style="endArrow=none;html=1;rounded=0;strokeWidth=1;exitX=0.5;exitY=0;exitDx=0;exitDy=0;" parent="1" edge="1">
          <mxGeometry width="50" height="50" relative="1" as="geometry">
            <mxPoint x="1109" y="444" as="sourcePoint" />
            <mxPoint x="1160" y="430" as="targetPoint" />
            <Array as="points" />
          </mxGeometry>
        </mxCell>
        <mxCell id="tUvqFTHjRJm8UM8evL2Z-25" value="description" style="whiteSpace=wrap;html=1;rounded=1;shadow=1;comic=0;labelBackgroundColor=none;strokeWidth=1;fontFamily=Verdana;fontSize=12;align=center;arcSize=50;fillColor=#ffe6cc;strokeColor=#d79b00;" parent="1" vertex="1">
          <mxGeometry x="1430" y="150" width="100" height="20" as="geometry" />
        </mxCell>
        <mxCell id="tUvqFTHjRJm8UM8evL2Z-26" value="" style="edgeStyle=none;rounded=1;html=1;labelBackgroundColor=none;startArrow=none;startFill=0;startSize=5;endArrow=classicThin;endFill=1;endSize=5;jettySize=auto;orthogonalLoop=1;strokeColor=#B3B3B3;strokeWidth=1;fontFamily=Verdana;fontSize=12;entryX=0.75;entryY=1;entryDx=0;entryDy=0;exitX=0.25;exitY=0;exitDx=0;exitDy=0;" parent="1" source="TNLm-F983Fp5qraipqUL-1" target="tUvqFTHjRJm8UM8evL2Z-25" edge="1">
          <mxGeometry relative="1" as="geometry">
            <mxPoint x="1590" y="200" as="sourcePoint" />
            <mxPoint x="1606" y="180" as="targetPoint" />
          </mxGeometry>
        </mxCell>
        <mxCell id="tUvqFTHjRJm8UM8evL2Z-27" value="grade" style="whiteSpace=wrap;html=1;rounded=1;shadow=1;comic=0;labelBackgroundColor=none;strokeWidth=1;fontFamily=Verdana;fontSize=12;align=center;arcSize=50;fillColor=#ffe6cc;strokeColor=#d79b00;" parent="1" vertex="1">
          <mxGeometry x="1225" y="155" width="100" height="20" as="geometry" />
        </mxCell>
        <mxCell id="tUvqFTHjRJm8UM8evL2Z-28" value="" style="edgeStyle=none;rounded=1;html=1;labelBackgroundColor=none;startArrow=none;startFill=0;startSize=5;endArrow=classicThin;endFill=1;endSize=5;jettySize=auto;orthogonalLoop=1;strokeColor=#B3B3B3;strokeWidth=1;fontFamily=Verdana;fontSize=12;exitX=0.5;exitY=0;exitDx=0;exitDy=0;" parent="1" source="TNLm-F983Fp5qraipqUL-200" edge="1">
          <mxGeometry relative="1" as="geometry">
            <mxPoint x="1610" y="216" as="sourcePoint" />
            <mxPoint x="1280" y="180" as="targetPoint" />
          </mxGeometry>
        </mxCell>
        <mxCell id="tUvqFTHjRJm8UM8evL2Z-31" value="has" style="rhombus;whiteSpace=wrap;html=1;strokeWidth=1;" parent="1" vertex="1">
          <mxGeometry x="1075" y="-210" width="80" height="80" as="geometry" />
        </mxCell>
        <mxCell id="tUvqFTHjRJm8UM8evL2Z-32" value="" style="endArrow=none;html=1;rounded=0;entryX=0;entryY=0.75;entryDx=0;entryDy=0;strokeWidth=1;exitX=0.5;exitY=0;exitDx=0;exitDy=0;" parent="1" source="tUvqFTHjRJm8UM8evL2Z-31" target="TNLm-F983Fp5qraipqUL-88" edge="1">
          <mxGeometry width="50" height="50" relative="1" as="geometry">
            <mxPoint x="1420" y="50" as="sourcePoint" />
            <mxPoint x="1383" y="-421" as="targetPoint" />
          </mxGeometry>
        </mxCell>
        <mxCell id="tUvqFTHjRJm8UM8evL2Z-33" value="" style="endArrow=none;html=1;rounded=0;entryX=0;entryY=0.75;entryDx=0;entryDy=0;strokeWidth=1;exitX=0.5;exitY=0;exitDx=0;exitDy=0;" parent="1" edge="1">
          <mxGeometry width="50" height="50" relative="1" as="geometry">
            <mxPoint x="1125" y="-200" as="sourcePoint" />
            <mxPoint x="1350" y="-430" as="targetPoint" />
          </mxGeometry>
        </mxCell>
        <mxCell id="tUvqFTHjRJm8UM8evL2Z-34" value="" style="endArrow=none;html=1;rounded=0;strokeWidth=1;entryX=0.5;entryY=1;entryDx=0;entryDy=0;exitX=0.5;exitY=0;exitDx=0;exitDy=0;" parent="1" source="qw9-CJyTZ9ZZRqgVCmVu-5" target="tUvqFTHjRJm8UM8evL2Z-31" edge="1">
          <mxGeometry width="50" height="50" relative="1" as="geometry">
            <mxPoint x="1200" y="350" as="sourcePoint" />
            <mxPoint x="1390" y="-410" as="targetPoint" />
          </mxGeometry>
        </mxCell>
        <mxCell id="tUvqFTHjRJm8UM8evL2Z-38" value="M" style="text;html=1;align=center;verticalAlign=middle;whiteSpace=wrap;rounded=0;strokeWidth=1;" parent="1" vertex="1">
          <mxGeometry x="1307" y="-400" width="60" height="30" as="geometry" />
        </mxCell>
        <mxCell id="tUvqFTHjRJm8UM8evL2Z-40" value="1" style="text;html=1;align=center;verticalAlign=middle;whiteSpace=wrap;rounded=0;strokeWidth=1;" parent="1" vertex="1">
          <mxGeometry x="1140" y="305" width="60" height="30" as="geometry" />
        </mxCell>
        <mxCell id="tUvqFTHjRJm8UM8evL2Z-41" value="has" style="rhombus;whiteSpace=wrap;html=1;strokeWidth=1;" parent="1" vertex="1">
          <mxGeometry x="310" y="-180" width="80" height="80" as="geometry" />
        </mxCell>
        <mxCell id="tUvqFTHjRJm8UM8evL2Z-42" value="" style="endArrow=none;html=1;rounded=0;entryX=0;entryY=0.5;entryDx=0;entryDy=0;strokeWidth=1;exitX=0.5;exitY=0;exitDx=0;exitDy=0;" parent="1" source="tUvqFTHjRJm8UM8evL2Z-41" target="TNLm-F983Fp5qraipqUL-88" edge="1">
          <mxGeometry width="50" height="50" relative="1" as="geometry">
            <mxPoint x="1125" y="-200" as="sourcePoint" />
            <mxPoint x="1350" y="-430" as="targetPoint" />
          </mxGeometry>
        </mxCell>
        <mxCell id="tUvqFTHjRJm8UM8evL2Z-43" value="" style="endArrow=none;html=1;rounded=0;entryX=0;entryY=0.5;entryDx=0;entryDy=0;strokeWidth=1;exitX=0.625;exitY=0.25;exitDx=0;exitDy=0;exitPerimeter=0;" parent="1" source="tUvqFTHjRJm8UM8evL2Z-41" edge="1">
          <mxGeometry width="50" height="50" relative="1" as="geometry">
            <mxPoint x="400" y="-170" as="sourcePoint" />
            <mxPoint x="1350" y="-450" as="targetPoint" />
          </mxGeometry>
        </mxCell>
        <mxCell id="tUvqFTHjRJm8UM8evL2Z-44" value="M" style="text;html=1;align=center;verticalAlign=middle;whiteSpace=wrap;rounded=0;strokeWidth=1;" parent="1" vertex="1">
          <mxGeometry x="1252" y="-475" width="60" height="30" as="geometry" />
        </mxCell>
        <mxCell id="tUvqFTHjRJm8UM8evL2Z-46" value="1" style="text;html=1;align=center;verticalAlign=middle;whiteSpace=wrap;rounded=0;strokeWidth=1;" parent="1" vertex="1">
          <mxGeometry x="527.75" y="504" width="60" height="30" as="geometry" />
        </mxCell>
        <mxCell id="tUvqFTHjRJm8UM8evL2Z-47" value="Mark" style="whiteSpace=wrap;html=1;rounded=1;shadow=1;comic=0;labelBackgroundColor=none;strokeWidth=1;fontFamily=Verdana;fontSize=12;align=center;arcSize=50;fillColor=#ffe6cc;strokeColor=#d79b00;" parent="1" vertex="1">
          <mxGeometry x="1602" y="-340" width="100" height="20" as="geometry" />
        </mxCell>
        <mxCell id="tUvqFTHjRJm8UM8evL2Z-48" value="M" style="text;html=1;align=center;verticalAlign=middle;whiteSpace=wrap;rounded=0;strokeWidth=1;" parent="1" vertex="1">
          <mxGeometry x="1818.5" y="26" width="63" height="30" as="geometry" />
        </mxCell>
        <mxCell id="tUvqFTHjRJm8UM8evL2Z-49" value="M" style="text;html=1;align=center;verticalAlign=middle;whiteSpace=wrap;rounded=0;strokeWidth=1;" parent="1" vertex="1">
          <mxGeometry x="1367" y="-385" width="63" height="30" as="geometry" />
        </mxCell>
        <mxCell id="tUvqFTHjRJm8UM8evL2Z-58" value="has" style="rhombus;whiteSpace=wrap;html=1;strokeWidth=1;" parent="1" vertex="1">
          <mxGeometry x="841.5" y="-180" width="80" height="80" as="geometry" />
        </mxCell>
        <mxCell id="tUvqFTHjRJm8UM8evL2Z-59" value="" style="endArrow=none;html=1;rounded=0;strokeWidth=1;exitX=0.5;exitY=0;exitDx=0;exitDy=0;" parent="1" source="tUvqFTHjRJm8UM8evL2Z-58" edge="1">
          <mxGeometry width="50" height="50" relative="1" as="geometry">
            <mxPoint x="1125" y="-200" as="sourcePoint" />
            <mxPoint x="1340" y="-440" as="targetPoint" />
          </mxGeometry>
        </mxCell>
        <mxCell id="tUvqFTHjRJm8UM8evL2Z-61" value="M" style="text;html=1;align=center;verticalAlign=middle;whiteSpace=wrap;rounded=0;strokeWidth=1;" parent="1" vertex="1">
          <mxGeometry x="1220" y="-415" width="60" height="30" as="geometry" />
        </mxCell>
        <mxCell id="tUvqFTHjRJm8UM8evL2Z-62" value="M" style="text;html=1;align=center;verticalAlign=middle;whiteSpace=wrap;rounded=0;strokeWidth=1;" parent="1" vertex="1">
          <mxGeometry x="795" y="170" width="60" height="30" as="geometry" />
        </mxCell>
        <mxCell id="tUvqFTHjRJm8UM8evL2Z-63" value="degree" style="whiteSpace=wrap;html=1;rounded=1;shadow=1;comic=0;labelBackgroundColor=none;strokeWidth=1;fontFamily=Verdana;fontSize=12;align=center;arcSize=50;fillColor=#ffe6cc;strokeColor=#d79b00;dashed=1;" parent="1" vertex="1">
          <mxGeometry x="700" y="-150" width="100" height="20" as="geometry" />
        </mxCell>
        <mxCell id="tUvqFTHjRJm8UM8evL2Z-64" value="" style="edgeStyle=none;rounded=1;html=1;labelBackgroundColor=none;startArrow=none;startFill=0;startSize=5;endArrow=classicThin;endFill=1;endSize=5;jettySize=auto;orthogonalLoop=1;strokeColor=#B3B3B3;strokeWidth=1;fontFamily=Verdana;fontSize=12;exitX=0;exitY=0.5;exitDx=0;exitDy=0;" parent="1" source="tUvqFTHjRJm8UM8evL2Z-58" edge="1">
          <mxGeometry relative="1" as="geometry">
            <mxPoint x="573" y="196" as="sourcePoint" />
            <mxPoint x="800" y="-140" as="targetPoint" />
            <Array as="points" />
          </mxGeometry>
        </mxCell>
        <mxCell id="tUvqFTHjRJm8UM8evL2Z-67" value="isCorrect" style="whiteSpace=wrap;html=1;rounded=1;shadow=1;comic=0;labelBackgroundColor=none;strokeWidth=1;fontFamily=Verdana;fontSize=12;align=center;arcSize=50;fillColor=#ffe6cc;strokeColor=#d79b00;dashed=1;" parent="1" vertex="1">
          <mxGeometry x="1260" y="16" width="100" height="20" as="geometry" />
        </mxCell>
        <mxCell id="tUvqFTHjRJm8UM8evL2Z-68" value="" style="edgeStyle=none;rounded=1;html=1;labelBackgroundColor=none;startArrow=none;startFill=0;startSize=5;endArrow=classicThin;endFill=1;endSize=5;jettySize=auto;orthogonalLoop=1;strokeColor=#B3B3B3;strokeWidth=1;fontFamily=Verdana;fontSize=12;exitX=0;exitY=0;exitDx=0;exitDy=0;entryX=1;entryY=0.25;entryDx=0;entryDy=0;" parent="1" source="TNLm-F983Fp5qraipqUL-280" target="tUvqFTHjRJm8UM8evL2Z-67" edge="1">
          <mxGeometry relative="1" as="geometry">
            <mxPoint x="852" y="-130" as="sourcePoint" />
            <mxPoint x="810" y="-130" as="targetPoint" />
            <Array as="points" />
          </mxGeometry>
        </mxCell>
        <mxCell id="tUvqFTHjRJm8UM8evL2Z-69" value="date" style="whiteSpace=wrap;html=1;rounded=1;shadow=1;comic=0;labelBackgroundColor=none;strokeWidth=1;fontFamily=Verdana;fontSize=12;align=center;arcSize=50;fillColor=#ffe6cc;strokeColor=#d79b00;" parent="1" vertex="1">
          <mxGeometry x="741.5" y="-210" width="100" height="20" as="geometry" />
        </mxCell>
        <mxCell id="tUvqFTHjRJm8UM8evL2Z-70" value="" style="edgeStyle=none;rounded=1;html=1;labelBackgroundColor=none;startArrow=none;startFill=0;startSize=5;endArrow=classicThin;endFill=1;endSize=5;jettySize=auto;orthogonalLoop=1;strokeColor=#B3B3B3;strokeWidth=1;fontFamily=Verdana;fontSize=12;exitX=0;exitY=0;exitDx=0;exitDy=0;entryX=0.75;entryY=1;entryDx=0;entryDy=0;" parent="1" source="tUvqFTHjRJm8UM8evL2Z-58" target="tUvqFTHjRJm8UM8evL2Z-69" edge="1">
          <mxGeometry relative="1" as="geometry">
            <mxPoint x="852" y="-130" as="sourcePoint" />
            <mxPoint x="810" y="-130" as="targetPoint" />
            <Array as="points" />
          </mxGeometry>
        </mxCell>
        <mxCell id="rDTkUXh1dC8tIWfV8Y-i-2" value="" style="endArrow=none;html=1;rounded=0;strokeWidth=1;" edge="1" parent="1">
          <mxGeometry width="50" height="50" relative="1" as="geometry">
            <mxPoint x="1973" y="25" as="sourcePoint" />
            <mxPoint x="1983" y="-65" as="targetPoint" />
          </mxGeometry>
        </mxCell>
        <mxCell id="rDTkUXh1dC8tIWfV8Y-i-3" value="IsCorrect" style="whiteSpace=wrap;html=1;rounded=1;shadow=1;comic=0;labelBackgroundColor=none;strokeWidth=1;fontFamily=Verdana;fontSize=12;align=center;arcSize=50;fillColor=#ffe6cc;strokeColor=#d79b00;" vertex="1" parent="1">
          <mxGeometry x="2126" y="-318" width="100" height="20" as="geometry" />
        </mxCell>
        <mxCell id="rDTkUXh1dC8tIWfV8Y-i-4" value="" style="edgeStyle=none;rounded=1;html=1;labelBackgroundColor=none;startArrow=none;startFill=0;startSize=5;endArrow=classicThin;endFill=1;endSize=5;jettySize=auto;orthogonalLoop=1;strokeColor=#B3B3B3;strokeWidth=1;fontFamily=Verdana;fontSize=12;entryX=0;entryY=0.5;entryDx=0;entryDy=0;" edge="1" parent="1" target="rDTkUXh1dC8tIWfV8Y-i-3">
          <mxGeometry relative="1" as="geometry">
            <mxPoint x="2075" y="-261" as="sourcePoint" />
            <mxPoint x="2125" y="-311" as="targetPoint" />
          </mxGeometry>
        </mxCell>
      </root>
    </mxGraphModel>
  </diagram>
</mxfile>
